<?xml version="1.0" encoding="UTF-8" standalone="no"?>
<svg viewBox="0 0 620 632" version="1.1" xmlns="http://www.w3.org/2000/svg" xmlns:xlink="http://www.w3.org/1999/xlink">
    <!-- Generator: Sketch 3.8.3 (29802) - http://www.bohemiancoding.com/sketch -->
    <title>Artboard 1</title>
    <desc>Created with Sketch.</desc>
    <defs></defs>
    <g id="Page-1" stroke="none" stroke-width="1" fill="none" fill-rule="evenodd">
        <g id="Artboard-1">
            <g id="Group-33" transform="translate(0.000000, 145.000000)">
                <g id="Group-25" transform="translate(97.000000, 0.000000)" fill="#3C3C3B">
                    <path d="M132.874285,112.712848 L165.838654,112.712848 L165.838654,79.704 L132.874285,79.704 L132.874285,112.712848 Z M132.874285,158.623455 L165.838654,158.623455 L165.838654,125.608758 L132.874285,125.608758 L132.874285,158.623455 Z M132.874285,204.522364 L165.838654,204.522364 L165.838654,171.507667 L132.874285,171.507667 L132.874285,204.522364 Z M132.874285,250.427121 L165.838654,250.427121 L165.838654,217.412424 L132.874285,217.412424 L132.874285,250.427121 Z M132.874285,296.343576 L165.838654,296.343576 L165.838654,263.317182 L132.874285,263.317182 L132.874285,296.343576 Z M86.9953151,112.712848 L119.994747,112.712848 L119.994747,79.704 L86.9953151,79.704 L86.9953151,112.712848 Z M86.9953151,158.623455 L119.994747,158.623455 L119.994747,125.608758 L86.9953151,125.608758 L86.9953151,158.623455 Z M86.9953151,204.522364 L119.994747,204.522364 L119.994747,171.507667 L86.9953151,171.507667 L86.9953151,204.522364 Z M86.9953151,250.427121 L119.994747,250.427121 L119.994747,217.412424 L86.9953151,217.412424 L86.9953151,250.427121 Z M86.9953151,296.343576 L119.994747,296.343576 L119.994747,263.317182 L86.9953151,263.317182 L86.9953151,296.343576 Z M41.1397205,112.712848 L74.1274651,112.712848 L74.1274651,79.704 L41.1397205,79.704 L41.1397205,112.712848 Z M41.1397205,158.623455 L74.1274651,158.623455 L74.1274651,125.608758 L41.1397205,125.608758 L41.1397205,158.623455 Z M41.1397205,204.522364 L74.1274651,204.522364 L74.1274651,171.507667 L41.1397205,171.507667 L41.1397205,204.522364 Z M41.1397205,250.427121 L74.1274651,250.427121 L74.1274651,217.412424 L41.1397205,217.412424 L41.1397205,250.427121 Z M41.1397205,296.343576 L74.1274651,296.343576 L74.1274651,263.317182 L41.1397205,263.317182 L41.1397205,296.343576 Z M202.677404,55 L4.30097078,55 C1.9284244,55 0,56.9066061 0,59.2752424 L0,396.873182 C0,399.23597 1.9284244,401.16597 4.30097078,401.16597 L71.6789504,401.16597 L71.6789504,323.486394 L135.299424,323.486394 L135.299424,401.16597 L202.677404,401.16597 C205.04995,401.16597 206.978375,399.23597 206.978375,396.873182 L206.978375,59.2752424 C206.978375,56.9066061 205.04995,55 202.677404,55 L202.677404,55 Z" id="Fill-12-Copy"></path>
                    <path d="M352.862597,202.712848 L385.850342,202.712848 L385.850342,169.698152 L352.862597,169.698152 L352.862597,202.712848 Z M352.862597,250.325364 L385.850342,250.325364 L385.850342,217.310667 L352.862597,217.310667 L352.862597,250.325364 Z M352.862597,296.241818 L385.850342,296.241818 L385.850342,263.215424 L352.862597,263.215424 L352.862597,296.241818 Z M306.995315,202.712848 L339.98306,202.712848 L339.98306,169.698152 L306.995315,169.698152 L306.995315,202.712848 Z M306.995315,250.325364 L339.98306,250.325364 L339.98306,217.310667 L306.995315,217.310667 L306.995315,250.325364 Z M306.995315,296.241818 L339.98306,296.241818 L339.98306,263.215424 L306.995315,263.215424 L306.995315,296.241818 Z M261.122189,202.712848 L294.109934,202.712848 L294.109934,169.698152 L261.122189,169.698152 L261.122189,202.712848 Z M261.122189,250.325364 L294.109934,250.325364 L294.109934,217.310667 L261.122189,217.310667 L261.122189,250.325364 Z M261.122189,296.241818 L294.109934,296.241818 L294.109934,263.215424 L261.122189,263.215424 L261.122189,296.241818 Z M422.677404,145 L224.300971,145 C221.910893,145 220,146.918303 220,149.292788 L220,396.771424 C220,399.134212 221.910893,401.064212 224.300971,401.064212 L294.787804,401.064212 L294.787804,323.384636 L358.408278,323.384636 L358.408278,401.064212 L422.677404,401.064212 C425.061638,401.064212 426.972531,399.134212 426.972531,396.771424 L426.972531,149.292788 C426.972531,146.918303 425.061638,145 422.677404,145 L422.677404,145 Z" id="Fill-14-Copy"></path>
                    <path d="M31.2834396,49.4138485 L93.9221703,49.4138485 C96.2713418,49.4138485 98.223141,47.489697 98.223141,45.1093636 L98.223141,4.29863636 C98.223141,1.91830303 96.2713418,0 93.9221703,0 L31.2834396,0 C28.8992058,0 27,1.91830303 27,4.29863636 L27,45.1093636 C27,47.489697 28.8992058,49.4138485 31.2834396,49.4138485" id="Fill-15-Copy"></path>
                    <path d="M241.300971,139.413848 L303.916327,139.413848 C306.288873,139.413848 308.211454,137.478 308.211454,135.121061 L308.211454,94.2927879 C308.211454,91.93 306.288873,90 303.916327,90 L241.300971,90 C238.928424,90 237,91.93 237,94.2927879 L237,135.121061 C237,137.478 238.928424,139.413848 241.300971,139.413848" id="Fill-16-Copy"></path>
                </g>
                <polygon id="Fill-17-Copy" fill="#72c126" points="0 427 620 427 620 409 0 409"></polygon>
                <polygon id="Fill-17-Copy" fill="#019beb" points="0 457 620 457 620 439 0 439"></polygon>
                <polygon id="Fill-17-Copy" fill="#ff5841" points="0 487 620 487 620 469 0 469"></polygon>
            </g>
        </g>
    </g>
</svg>