<?xml version="1.0" encoding="UTF-8" standalone="no"?>
<svg viewBox="0 0 620 632" version="1.1" xmlns="http://www.w3.org/2000/svg" xmlns:xlink="http://www.w3.org/1999/xlink">
    <!-- Generator: Sketch 3.8.3 (29802) - http://www.bohemiancoding.com/sketch -->
    <title>Artboard 1</title>
    <desc>Created with Sketch.</desc>
    <defs></defs>
    <g id="Page-1" stroke="none" stroke-width="1" fill="none" fill-rule="evenodd">
        <g id="Artboard-1">
            <g id="Group-32" transform="translate(0.000000, 185.000000)">
                <g id="Group-23" transform="translate(97.086915, 0.000000)" fill="#3C3C3B">
                    <polygon id="Fill-26-Copy" points="0 144.977606 37.0841855 144.977606 37.0841855 134 0 134"></polygon>
                    <polygon id="Fill-27-Copy" points="249 144.977606 286.095873 144.977606 286.095873 134 249 134"></polygon>
                    <polygon id="Fill-28-Copy" points="0 235.971758 37.0841855 235.971758 37.0841855 225 0 225"></polygon>
                    <polygon id="Fill-29-Copy" points="249 235.971758 286.095873 235.971758 286.095873 225 249 225"></polygon>
                    <polygon id="Fill-30-Copy" points="312 245.949818 426.811376 245.949818 426.811376 219 312 219"></polygon>
                    <path d="M355.225925,336.089061 L364.324582,306.197455 L348.90303,306.197455 L383.597139,272.931273 L374.492638,302.840424 L389.908346,302.840424 L355.225925,336.089061 Z M312,358.465364 L426.811376,358.465364 L426.811376,257 L312,257 L312,358.465364 Z" id="Fill-31-Copy"></path>
                    <path d="M102.072088,172.752545 L135.398767,206.124 L102.072088,239.501303 L102.072088,172.752545 Z M102.072088,79.5101515 L135.398767,112.893303 L102.072088,146.264758 L102.072088,79.5101515 Z M125.791708,10.9717576 L160.532565,10.9717576 L181.488111,60.7774545 L104.824475,60.7774545 L125.791708,10.9717576 Z M184.252186,146.264758 L150.931349,112.893303 L184.252186,79.5101515 L184.252186,146.264758 Z M184.252186,239.501303 L150.931349,206.124 L184.252186,172.752545 L184.252186,239.501303 Z M176.497582,247.256394 L109.820848,247.256394 L143.18259,213.890788 L176.497582,247.256394 Z M176.497582,165.003303 L143.18259,198.368909 L109.820848,165.003303 L176.497582,165.003303 Z M109.961097,71.8895758 L176.374864,71.8895758 L143.18259,105.138212 L109.961097,71.8895758 Z M174.39969,151.908545 L111.924583,151.908545 L143.18259,120.648394 L174.39969,151.908545 Z M143.18259,286.967606 L109.318288,258.228152 L177.000141,258.228152 L143.18259,286.967606 Z M37.0841855,207.369727 L24.0293367,207.369727 L24.0293367,199.246182 L72.4912262,162.868606 L91.091756,162.868606 L91.091756,253.379758 L42.7759593,358.289879 L54.8432211,358.289879 L98.5366429,263.445 L134.691679,294.178788 L59.2610661,358.289879 L76.1727637,358.289879 L143.18259,301.366576 L210.157353,358.289879 L227.086582,358.289879 L151.638438,294.178788 L187.78763,263.445 L231.481052,358.289879 L243.58922,358.289879 L195.226673,253.379758 L195.226673,162.868606 L213.879797,162.868606 L262.306624,199.246182 L262.306624,207.369727 L249.251775,207.369727 L249.251775,218.341485 L286.341804,218.341485 L286.341804,207.369727 L273.286956,207.369727 L273.286956,193.772 L217.497053,151.908545 L195.226673,151.908545 L195.226673,71.8895758 L213.879797,71.8895758 L262.306624,108.273 L262.306624,116.390697 L249.251775,116.390697 L249.251775,127.362455 L286.341804,127.362455 L286.341804,116.390697 L273.286956,116.390697 L273.286956,102.79297 L217.508741,60.9178182 L193.438498,60.9178182 L167.790454,0 L118.527976,0 L92.8740877,60.9178182 L68.8389072,60.9178182 L13.0782236,102.79297 L13.0782236,116.390697 L0,116.390697 L0,127.362455 L37.0841855,127.362455 L37.0841855,116.390697 L24.0293367,116.390697 L24.0293367,108.273 L72.4912262,71.8895758 L91.091756,71.8895758 L91.091756,151.908545 L68.8389072,151.908545 L13.0782236,193.772 L13.0782236,207.369727 L0,207.369727 L0,218.341485 L37.0841855,218.341485 L37.0841855,207.369727 Z" id="Fill-33-Copy"></path>
                </g>
                <polygon id="Fill-34-Copy" fill="#72c126" points="0.0869153748 387 620.086915 387 620.086915 369 0.0869153748 369"></polygon>
                <polygon id="Fill-34-Copy" fill="#019beb" points="0.0869153748 417 620.086915 417 620.086915 399 0.0869153748 399"></polygon>
                <polygon id="Fill-34-Copy" fill="#ff5841" points="0.0869153748 447 620.086915 447 620.086915 429 0.0869153748 429"></polygon>
            </g>
        </g>
    </g>
</svg>