<?xml version="1.0" encoding="UTF-8" standalone="no"?>
<svg viewBox="0 0 620 632" version="1.1" xmlns="http://www.w3.org/2000/svg" xmlns:xlink="http://www.w3.org/1999/xlink">
    <!-- Generator: Sketch 3.8.3 (29802) - http://www.bohemiancoding.com/sketch -->
    <title>Artboard 1</title>
    <desc>Created with Sketch.</desc>
    <defs></defs>
    <g id="Page-1" stroke="none" stroke-width="1" fill="none" fill-rule="evenodd">
        <g id="Artboard-1">
            <g id="Group-36" transform="translate(0.000000, 243.000000)">
                <g id="Group-27" transform="translate(96.000000, 0.000000)" fill="#3C3C3B">
                    <path d="M338.231957,107.128205 L90.7053286,107.128205 C82.9669396,107.128205 78.5614883,96.6321326 83.2180978,89.2961678 L112.827618,42.6120225 C114.599302,39.8227436 117.36883,38.1781976 120.314849,38.1781976 L308.622437,38.1781976 C311.561667,38.1781976 314.337984,39.8227436 316.109667,42.6120225 L345.719187,89.2961678 C350.375797,96.6321326 345.963558,107.128205 338.231957,107.128205" id="Fill-18-Copy"></path>
                    <polygon id="Fill-19-Copy" points="168.432166 31.6114586 197.702283 31.6114586 197.702283 0.961636364 168.432166 0.961636364"></polygon>
                    <polygon id="Fill-20-Copy" points="229.997026 31.6114586 259.267143 31.6114586 259.267143 0.961636364 229.997026 0.961636364"></polygon>
                    <path d="M267.158039,157.296213 L290.094895,157.296213 L290.094895,130.08059 L267.158039,130.08059 L267.158039,157.296213 Z M267.158039,190.324178 L290.094895,190.324178 L290.094895,163.092432 L267.158039,163.092432 L267.158039,190.324178 Z M239.367719,157.296213 L262.284211,157.296213 L262.284211,130.08059 L239.367719,130.08059 L239.367719,157.296213 Z M239.367719,190.324178 L262.284211,190.324178 L262.284211,163.092432 L239.367719,163.092432 L239.367719,190.324178 Z M165.113124,157.296213 L188.022829,157.296213 L188.022829,130.08059 L165.113124,130.08059 L165.113124,157.296213 Z M165.113124,190.324178 L188.022829,190.324178 L188.022829,163.092432 L165.113124,163.092432 L165.113124,190.324178 Z M137.322804,157.296213 L160.232509,157.296213 L160.232509,130.08059 L137.322804,130.08059 L137.322804,157.296213 Z M137.322804,190.324178 L160.232509,190.324178 L160.232509,163.092432 L137.322804,163.092432 L137.322804,190.324178 Z M103.382502,112.61132 L103.382502,303.056191 L173.055155,303.056191 L173.055155,243.642938 C173.055155,239.821787 175.668559,236.718109 178.886099,236.718109 L248.511236,236.718109 C251.721989,236.718109 254.34218,239.821787 254.34218,243.642938 L254.34218,303.056191 L324.014834,303.056191 L324.014834,112.61132 L103.382502,112.61132 Z" id="Fill-21-Copy"></path>
                    <path d="M419.677833,186.885217 L349.645412,142.297062 C342.069936,137.484347 335.695948,141.128145 335.702736,150.648776 L335.743464,187.780044 C335.743464,190.367785 337.515148,192.463775 339.694115,192.463775 L424.592389,192.463775 C423.2212,190.061448 421.530973,188.062196 419.677833,186.885217" id="Fill-22-Copy"></path>
                    <path d="M354.980833,276.904602 L377.435737,276.904602 L377.435737,250.237161 L354.980833,250.237161 L354.980833,276.904602 Z M354.980833,239.829765 L377.435737,239.829765 L377.435737,213.162323 L354.980833,213.162323 L354.980833,239.829765 Z M386.199123,276.904602 L408.660815,276.904602 L408.660815,250.237161 L386.199123,250.237161 L386.199123,276.904602 Z M386.199123,239.829765 L408.660815,239.829765 L408.660815,213.162323 L386.199123,213.162323 L386.199123,239.829765 Z M335.784197,286.280127 C335.790985,295.76045 342.164974,303.451121 349.726874,303.451121 L419.623533,303.451121 C424.314083,303.451121 428,297.687149 428,290.584968 L428,205.35073 C426.968215,204.125382 426.384442,203.432093 425.352656,202.206745 L343.074574,202.206745 C339.001738,202.206745 335.695953,206.132696 335.702741,210.969596 L335.784197,286.280127 Z" id="Fill-23-Copy"></path>
                    <path d="M8.39935927,186.885217 L78.43178,142.297062 C86.0072556,137.484347 92.3812444,141.128145 92.3744564,150.648776 L92.333728,187.780044 C92.333728,190.367785 90.5620442,192.463775 88.3830768,192.463775 L3.48480343,192.463775 C4.85599166,190.061448 6.54621874,188.062196 8.39935927,186.885217" id="Fill-24-Copy"></path>
                    <path d="M50.5642631,276.904602 L73.0191674,276.904602 L73.0191674,250.237161 L50.5642631,250.237161 L50.5642631,276.904602 Z M50.5642631,239.829765 L73.0191674,239.829765 L73.0191674,213.162323 L50.5642631,213.162323 L50.5642631,239.829765 Z M19.3391845,276.904602 L41.8008769,276.904602 L41.8008769,250.237161 L19.3391845,250.237161 L19.3391845,276.904602 Z M19.3391845,239.829765 L41.8008769,239.829765 L41.8008769,213.162323 L19.3391845,213.162323 L19.3391845,239.829765 Z M92.2972593,210.969596 C92.3040474,206.132696 88.9982619,202.206745 84.9254256,202.206745 L2.64734362,202.206745 C1.61555841,203.432093 1.0317852,204.125382 0,205.35073 L0,290.584968 C0,297.687149 3.68591688,303.451121 8.37646672,303.451121 L78.2731262,303.451121 C85.8418138,303.451121 92.2090145,295.76045 92.2158026,286.280127 L92.2972593,210.969596 Z" id="Fill-25-Copy"></path>
                </g>
                <polygon id="Fill-72-Copy" fill="#72c126" points="0 329 620 329 620 311 0 311"></polygon>
                <polygon id="Fill-72-Copy" fill="#019beb" points="0 359 620 359 620 341 0 341"></polygon>
                <polygon id="Fill-72-Copy" fill="#ff5841" points="0 389 620 389 620 371 0 371"></polygon>
            </g>
        </g>
    </g>
</svg>