<?xml version="1.0" encoding="UTF-8" standalone="no"?>
<svg viewBox="0 0 620 632" version="1.1" xmlns="http://www.w3.org/2000/svg" xmlns:xlink="http://www.w3.org/1999/xlink">
    <!-- Generator: Sketch 3.8.3 (29802) - http://www.bohemiancoding.com/sketch -->
    <title>Artboard 1</title>
    <desc>Created with Sketch.</desc>
    <defs></defs>
    <g id="Page-1" stroke="none" stroke-width="1" fill="none" fill-rule="evenodd">
        <g id="Artboard-1">
            <g id="Group-30" transform="translate(0.000000, 127.000000)">
                <polygon id="Fill-6-Copy" fill="#72c126" points="0 445 620 445 620 427 0 427"></polygon>
                <g id="Group-20" transform="translate(87.000000, 0.000000)" fill="#414141">
                    <path d="M131.402142,249.249063 C133.009162,239.248154 126.212927,229.843791 116.226026,228.235457 C106.239125,226.627124 96.8424392,233.428912 95.2354188,243.423972 C93.6283985,253.424881 100.41879,262.829245 110.411534,264.437578 C120.398435,266.045912 129.795122,259.244124 131.402142,249.249063" id="Fill-35-Copy"></path>
                    <path d="M127.530838,282.299091 C127.396433,279.942152 126.829593,277.614455 125.830319,275.462212 C125.561508,274.877364 125.117386,273.918212 124.585608,273 C119.408081,275.058667 113.564371,275.678606 107.673911,274.456273 C106.283108,274.169697 104.950742,273.754455 103.653438,273.286576 C101.935387,276.058758 100.871832,279.023939 100.690677,282.299091 L94.0230035,401.549697 C93.5555067,410.018303 100.26993,416.890273 109.029652,416.890273 L119.18602,416.890273 C127.945742,416.890273 134.666009,410.018303 134.192668,401.549697 L127.530838,282.299091 Z" id="Fill-36-Copy"></path>
                    <path d="M85.1831856,251.004549 C84.6397205,250.987003 84.084568,251.016246 83.4885096,251.162458 C78.7317294,252.338003 74.0684486,254.765125 70.2758806,257.864822 C54.0478971,271.11164 37.7381017,284.3877 21.3348069,297.476609 C15.2515045,302.330852 8.09295941,307.571094 3.11411824,313.092064 C-1.0524472,317.706519 -0.579106664,320.2857 1.85187682,321.619155 C4.94904327,323.321064 11.2193444,323.016943 15.18138,322.356064 C33.3436316,319.344094 57.3846557,304.641003 76.2481525,292.72764 C83.9560064,287.855852 91.6463292,282.124337 96.7069823,276.20567 C97.881568,274.831276 98.8165617,273.135215 99.3249645,271.345579 C91.8157968,267.05864 86.5798323,259.572579 85.1831856,251.004549" id="Fill-37-Copy"></path>
                    <path d="M246.120328,270.15687 C245.132741,266.764749 240.481147,262.542143 237.214513,260.202749 C222.242928,249.482476 194.859301,242.86784 173.097324,237.943416 C164.203197,235.925688 154.718855,234.539597 146.958408,235.141991 C144.533268,235.329143 142.64575,236.194719 141.161447,237.487234 C142.499657,241.657204 142.926248,246.183931 142.184097,250.804234 C141.535445,254.83384 140.068673,258.530082 138,261.758446 C138.20453,261.910507 138.385685,262.068416 138.61359,262.208779 C142.809374,264.741173 147.823277,266.320264 152.691088,266.817385 C173.523915,268.934537 194.438554,271.086779 215.283069,273.43787 C223.014297,274.315143 231.774019,275.67784 239.201375,275.297688 C245.413239,274.976022 246.897541,272.823779 246.120328,270.15687" id="Fill-38-Copy"></path>
                    <path d="M90.7296947,219.781603 C91.8516871,221.805178 93.2424901,223.115239 94.8144482,223.939875 C100.985406,218.775663 109.2601,216.190633 117.826979,217.570875 C118.043197,217.605966 118.247726,217.664451 118.452256,217.70539 C118.610036,217.237512 118.738598,216.74039 118.802879,216.178936 C119.375563,211.312996 118.732754,206.090299 117.16664,201.446603 C110.469748,181.590996 103.767012,161.647663 97.2746502,141.680936 C94.8728853,134.276754 92.4886515,125.732118 89.0642373,119.12333 C86.2066629,113.60236 83.6354304,113.14033 81.5316947,114.947512 C78.8552754,117.257663 76.9385384,123.240663 76.1613249,127.182542 C72.6083491,145.260209 77.9261254,172.946936 82.4550009,194.814421 C84.3074571,203.745057 86.9663453,212.962269 90.7296947,219.781603" id="Fill-39-Copy"></path>
                    <path d="M311.573695,196.326563 C318.837427,184.477532 315.132515,168.984896 303.299001,161.721078 C291.465488,154.451411 275.985499,158.159351 268.721767,170.002532 C261.452192,181.845714 265.157104,197.338351 277.002305,204.613866 C288.829975,211.877684 304.309963,208.169745 311.573695,196.326563" id="Fill-40-Copy"></path>
                    <path d="M310.022227,231.767242 C309.841072,228.53303 309.058015,225.333909 307.684743,222.380424 C307.316589,221.579182 306.708843,220.263273 305.984223,219 C298.872428,221.824818 290.849014,222.678697 282.767162,221.00603 C280.856269,220.608333 279.033031,220.04103 277.2507,219.397697 C274.889841,223.199212 273.428913,227.269758 273.183477,231.767242 L264.032227,395.448788 C263.383575,407.075576 272.60495,416.503333 284.625462,416.503333 L298.568555,416.503333 C310.589067,416.503333 319.816286,407.075576 319.167634,395.448788 L310.022227,231.767242 Z" id="Fill-41-Copy"></path>
                    <path d="M251.863935,174.154011 C251.186064,173.844042 250.461444,173.592557 249.637481,173.46389 C242.981495,172.469648 235.787888,173.107133 229.359806,175.054678 C201.847618,183.371224 174.206869,191.681921 146.554431,199.706042 C136.292876,202.677072 124.47105,205.577921 115.267207,209.98183 C107.565196,213.654678 106.817201,217.175466 109.201435,220.140648 C112.251852,223.918769 120.368766,226.813769 125.733292,228.053648 C150.358687,233.744224 188.547334,227.667648 218.71841,222.421557 C231.042795,220.281011 243.793771,217.029254 253.313175,212.169163 C255.522097,211.040405 257.602458,209.373587 259.18026,207.373405 C251.893153,198.004133 249.158297,185.763254 251.863935,174.154011" id="Fill-42-Copy"></path>
                    <path d="M445.815848,283.085018 C446.335938,278.265866 442.636869,270.469836 439.715014,265.791048 C426.32123,244.344654 395.028161,221.617442 369.987863,203.972563 C359.755526,196.761381 348.442103,190.035624 338.279891,186.737078 C335.100912,185.707745 332.260869,185.818866 329.69548,186.684442 C329.216296,192.67329 327.393058,198.644593 324.032925,204.118775 C321.105226,208.891139 317.312658,212.809624 313,215.827442 C313.175311,216.125715 313.321404,216.418139 313.543465,216.716411 C317.546407,222.12626 323.0804,226.75826 329.000079,229.939836 C354.326719,243.525866 379.741015,257.211321 404.968313,271.107321 C414.324093,276.265684 424.731741,282.576199 434.350488,285.985866 C442.397277,288.82823 445.406788,286.874836 445.815848,283.085018" id="Fill-43-Copy"></path>
                    <path d="M275.440928,138.171826 C275.803238,141.330007 276.890169,143.722038 278.456283,145.587704 C288.986649,142.259917 300.837693,143.318492 310.982374,149.552977 C311.239498,149.710886 311.467402,149.892189 311.706994,150.050098 C312.151116,149.54128 312.571864,148.979826 312.945861,148.301401 C316.218339,142.423674 318.135076,135.458129 318.573354,128.744068 C320.449185,100.039704 322.371766,71.2242196 324.569001,42.4906135 C325.38712,31.8346741 326.830517,19.7400075 325.942273,9.56364383 C325.194278,1.05994686 322.17308,-0.875901622 318.555823,0.323037772 C313.956823,1.84364383 308.399454,8.43488626 305.349038,13.0317953 C291.394258,34.1155832 283.674716,72.037159 277.988786,102.151007 C275.668833,114.45622 274.225437,127.550977 275.440928,138.171826" id="Fill-44-Copy"></path>
                </g>
                <polygon id="Fill-6-Copy" fill="#019beb" points="0 475 620 475 620 457 0 457"></polygon>
                <polygon id="Fill-6-Copy" fill="#ff5841" points="0 505 620 505 620 487 0 487"></polygon>
            </g>
        </g>
    </g>
</svg>