<?xml version="1.0" encoding="UTF-8" standalone="no"?>
<svg viewBox="0 0 620 632" version="1.1" xmlns="http://www.w3.org/2000/svg" xmlns:xlink="http://www.w3.org/1999/xlink">
    <!-- Generator: Sketch 3.8.3 (29802) - http://www.bohemiancoding.com/sketch -->
    <title>Artboard 1</title>
    <desc>Created with Sketch.</desc>
    <defs></defs>
    <g id="Page-1" stroke="none" stroke-width="1" fill="none" fill-rule="evenodd">
        <g id="Artboard-1">
            <g id="Group-31" transform="translate(0.000000, 220.000000)">
                <polygon id="Fill-7-Copy" fill="#72c126" points="0 352 620 352 620 334 0 334"></polygon>
                <g id="Group-21" transform="translate(124.000000, 0.000000)" fill="#414141">
                    <path d="M327.644969,204.622939 C331.121977,204.622939 333.39518,201.850758 332.71731,198.429394 L328.521526,177.187697 C327.849499,173.772182 324.477678,171 320.994827,171 L291.197748,171 C287.714897,171 285.441693,173.772182 286.119564,177.187697 L290.321192,198.429394 C290.987375,201.850758 294.359195,204.622939 297.842047,204.622939 L327.644969,204.622939 Z" id="Fill-45-Copy"></path>
                    <path d="M226.191914,204.622939 L273.385719,204.622939 C276.86857,204.622939 279.141773,201.850758 278.458059,198.429394 L274.262275,177.187697 C273.584405,173.772182 270.212584,171 266.735576,171 L232.842057,171 C229.359205,171 225.993228,173.772182 225.315358,177.187697 L221.119574,198.429394 C220.441703,201.850758 222.714907,204.622939 226.191914,204.622939" id="Fill-46-Copy"></path>
                    <path d="M282.548132,221.187697 C281.864418,217.772182 278.498441,215 275.015589,215 L223.637688,215 C220.160681,215 216.783016,217.772182 216.110989,221.187697 L210.121186,251.500394 C209.437472,254.921758 211.716519,257.693939 215.199371,257.693939 L283.453907,257.693939 C286.936758,257.693939 289.215805,254.921758 288.537935,251.500394 L282.548132,221.187697 Z" id="Fill-47-Copy"></path>
                    <path d="M199.71982,215 L172.634223,215 C169.157216,215 165.785395,217.772182 165.113368,221.187697 L159.117721,251.500394 C158.445695,254.921758 160.718898,257.693939 164.201749,257.693939 L191.281503,257.693939 C194.764354,257.693939 198.136175,254.921758 198.808202,251.500394 L204.803848,221.187697 C205.475875,217.772182 203.202672,215 199.71982,215" id="Fill-48-Copy"></path>
                    <path d="M335.814045,221.187697 C335.130331,217.772182 331.764354,215 328.281503,215 L301.201749,215 C297.718898,215 295.445695,217.772182 296.117721,221.187697 L302.113368,251.500394 C302.791238,254.921758 306.157216,257.693939 309.640067,257.693939 L336.71982,257.693939 C340.202672,257.693939 342.481719,254.921758 341.803848,251.500394 L335.814045,221.187697 Z" id="Fill-49-Copy"></path>
                    <path d="M207.92181,171 L180.8479,171 C177.359205,171 173.999072,173.772182 173.315358,177.187697 L169.119574,198.429394 C168.441703,201.850758 170.714907,204.622939 174.191914,204.622939 L201.277511,204.622939 C204.760363,204.622939 208.132184,201.850758 208.80421,198.429394 L213.005838,177.187697 C213.683708,173.772182 211.404661,171 207.92181,171" id="Fill-50-Copy"></path>
                    <path d="M352.318756,269.396818 L147.444117,269.396818 C143.961266,269.396818 141.664688,266.624636 142.31334,263.203273 L160.61584,167.498667 C161.264492,164.077303 164.618782,161.299273 168.101633,161.299273 L331.655397,161.299273 C335.138248,161.299273 338.486694,164.077303 339.147033,167.498667 L357.432003,263.203273 C358.086499,266.624636 355.801608,269.396818 352.318756,269.396818 L352.318756,269.396818 Z M351.319482,156.211091 C350.711736,152.783879 347.392509,150 343.915501,150 L155.835685,150 C152.358678,150 149.045294,152.783879 148.437548,156.211091 L127.096318,277.134364 C126.488572,280.567424 128.820213,283.351303 132.303064,283.351303 L159.137382,283.351303 C168.107477,283.351303 175.207585,283.988788 175.090711,284.795879 C175.020586,285.275455 174.985524,285.766727 174.985524,286.275545 L174.985524,316.845576 C174.985524,322.068273 178.252158,326.308424 182.272631,326.308424 C186.304791,326.308424 189.565581,322.068273 189.565581,316.845576 L189.565581,286.275545 C189.565581,285.766727 189.530519,285.275455 189.460394,284.795879 C189.349364,283.988788 196.443628,283.351303 205.419567,283.351303 L293.379094,283.351303 C302.34919,283.351303 309.449298,283.988788 309.332424,284.795879 C309.262299,285.275455 309.227237,285.766727 309.227237,286.275545 L309.227237,316.845576 C309.227237,322.068273 312.493871,326.308424 316.520187,326.308424 C320.546504,326.308424 323.807294,322.068273 323.807294,316.845576 L323.807294,286.275545 C323.807294,285.766727 323.778075,285.275455 323.702107,284.795879 C323.591077,283.988788 330.691185,283.351303 339.66128,283.351303 L367.45981,283.351303 C370.936817,283.351303 373.274302,280.567424 372.666556,277.134364 L351.319482,156.211091 Z" id="Fill-51-Copy"></path>
                    <path d="M99.1108713,40.8403499 C101.506793,54.2099862 108.799743,71.0126832 115.403136,78.3700771 C115.83557,78.8496529 116.262161,79.2824408 116.677064,79.6801377 C118.453552,78.826259 120.288477,78.0484105 122.18184,77.3641377 C124.075202,76.679865 125.986095,76.100865 127.896988,75.6212893 C127.967113,75.0422893 128.013862,74.4340468 128.031394,73.796562 C128.411235,63.9126226 123.274613,46.3262286 116.566034,34.5239862 L101.559386,8.08883471 C94.8566502,-3.7192562 91.3621115,-2.45013499 93.752189,10.9195014 L99.1108713,40.8403499 Z" id="Fill-52-Copy"></path>
                    <path d="M183.810491,83.3403218 C184.2663,82.9835642 184.733797,82.5858673 185.201294,82.1530794 C192.447494,75.4273218 201.242278,59.3556854 204.842004,46.2667764 L212.894637,16.9600188 C216.500206,3.85941272 213.134229,2.28032181 205.379625,13.4275339 L188.035493,38.3771703 C180.28089,49.5243824 173.560623,66.5668673 173.034689,76.4449582 C172.999626,77.0882915 172.993783,77.6906854 173.00547,78.2755339 C174.869614,78.9247157 176.710383,79.6791703 178.539464,80.5330491 C180.356858,81.3869279 182.115815,82.3285339 183.810491,83.3403218" id="Fill-53-Copy"></path>
                    <path d="M219.061379,128.922656 C219.639906,128.992838 220.241808,129.039626 220.89046,129.06302 C230.760487,129.437323 248.332524,124.296505 260.125131,117.588293 L286.538701,102.563535 C298.331309,95.855323 297.069067,92.357929 283.704502,94.7558078 L253.813924,100.11302 C240.461046,102.510899 223.666222,109.815656 216.308991,116.418596 C215.841494,116.845535 215.40906,117.278323 215,117.699414 C215.859025,119.471505 216.636239,121.307929 217.314109,123.208687 C217.997823,125.103596 218.582194,127.010202 219.061379,128.922656" id="Fill-54-Copy"></path>
                    <path d="M75.5591974,168.159573 C74.9748264,168.09524 74.3729242,168.042603 73.7301161,168.019209 C63.8600894,167.644906 46.2880525,172.785725 34.4896015,179.499785 L8.08771835,194.518694 C-3.71657644,201.226906 -2.4484913,204.7243 10.9043867,202.326422 L40.8008086,196.963361 C54.1595303,194.571331 70.9426663,187.266573 78.3057412,180.657785 C78.7790818,180.230846 79.2115163,179.809755 79.620576,179.388664 C78.7557069,177.610725 77.9901809,175.768452 77.3006231,173.873543 C76.6110652,171.978634 76.0383816,170.072028 75.5591974,168.159573" id="Fill-55-Copy"></path>
                    <path d="M45.2256649,90.5095423 L15.9486764,82.4444817 C2.85876531,78.841815 1.28680724,82.2105423 12.4190753,89.9656332 L37.3483435,107.329785 C48.4864553,115.090724 65.5091834,121.810633 75.3850537,122.336997 C76.0278619,122.372088 76.629764,122.377936 77.2141351,122.366239 C77.8627869,120.500573 78.6166255,118.6583 79.4639635,116.833573 C80.3288327,115.008845 81.2579826,113.248451 82.2747882,111.558239 C81.9124781,111.102057 81.5209496,110.640027 81.088515,110.1663 C74.3624044,102.914179 58.315576,94.1122089 45.2256649,90.5095423" id="Fill-56-Copy"></path>
                    <path d="M102.173339,163.283223 C93.2207747,138.503193 106.036031,111.149829 130.795832,102.189951 C155.543945,93.2242233 182.880822,106.044102 191.83923,130.824132 C192.546319,132.777526 193.101471,134.748466 193.533906,136.719405 L204.075959,136.719405 C203.497432,133.567072 202.661781,130.426435 201.539789,127.315041 C190.652956,97.1719505 157.402245,81.5740414 127.283762,92.4756172 C97.1652792,103.377193 81.5801038,136.649223 92.4727798,166.792314 C98.5443948,183.60086 111.575869,195.882678 127.131826,201.573254 L128.960907,191.209738 C116.934551,186.285314 106.94765,176.477405 102.173339,163.283223" id="Fill-57-Copy"></path>
                </g>
                <polygon id="Fill-7-Copy" fill="#019beb" points="0 382 620 382 620 364 0 364"></polygon>
                <polygon id="Fill-7-Copy" fill="#ff5841" points="0 412 620 412 620 394 0 394"></polygon>
            </g>
        </g>
    </g>
</svg>