<?xml version="1.0" encoding="UTF-8" standalone="no"?>
<svg viewBox="0 0 620 632" version="1.1" xmlns="http://www.w3.org/2000/svg" xmlns:xlink="http://www.w3.org/1999/xlink">
    <!-- Generator: Sketch 3.8.3 (29802) - http://www.bohemiancoding.com/sketch -->
    <title>Artboard 1</title>
    <desc>Created with Sketch.</desc>
    <defs></defs>
    <g id="Page-1" stroke="none" stroke-width="1" fill="none" fill-rule="evenodd">
        <g id="Artboard-1">
            <g id="Group-38" transform="translate(0.000000, 280.000000)">
                <g id="Group-35">
                    <g id="Group-26" transform="translate(201.000000, 0.000000)" fill="#3C3C3B">
                        <path d="M146.429309,143.038783 L176.282605,143.038783 L176.282605,96.2721222 L146.429309,96.2721222 L146.429309,143.038783 Z M146.429309,210.588602 L176.282605,210.588602 L176.282605,169.016211 L146.429309,169.016211 L146.429309,210.588602 Z M94.5107967,143.038783 L124.364093,143.038783 L124.364093,96.2721222 L94.5107967,96.2721222 L94.5107967,143.038783 Z M94.5107967,210.588602 L124.364093,210.588602 L124.364093,169.016211 L94.5107967,169.016211 L94.5107967,210.588602 Z M42.5862145,143.038783 L72.4395107,143.038783 L72.4395107,96.2721222 L42.5862145,96.2721222 L42.5862145,143.038783 Z M42.5862145,210.588602 L72.4395107,210.588602 L72.4395107,169.016211 L42.5862145,169.016211 L42.5862145,210.588602 Z M21.8139535,241.335039 L197.048796,241.335039 L197.048796,78.9457364 L21.8139535,78.9457364 L21.8139535,241.335039 Z" id="Fill-67-Copy"></path>
                        <path d="M217.635264,56.150155 C217.635264,41.2052361 205.525194,29.0852713 190.592475,29.0852713 L27.0427886,29.0852713 C12.1040001,29.0852713 0,41.2052361 0,56.150155 L0,72.8204224 L217.635264,72.8204224 L217.635264,56.150155 Z" id="Fill-68-Copy"></path>
                        <polygon id="Fill-69-Copy" points="1.03875969 267.053973 217.374999 267.053973 217.374999 249.302326 1.03875969 249.302326"></polygon>
                        <polygon id="Fill-70-Copy" points="135.03876 26.6335466 176.728967 26.6335466 176.728967 0 135.03876 0"></polygon>
                    </g>
                    <polygon id="Fill-71-Copy" fill="#72c126" points="0 292 620 292 620 274 0 274"></polygon>
                    <polygon id="Fill-71-Copy" fill="#019beb" points="0 322 620 322 620 304 0 304"></polygon>
                    <polygon id="Fill-71-Copy" fill="#ff5841" points="0 352 620 352 620 334 0 334"></polygon>
                </g>
            </g>
        </g>
    </g>
</svg>