<?xml version="1.0" encoding="UTF-8" standalone="no"?>
<svg width="620px" height="340px" viewBox="0 0 620 340" version="1.1" xmlns="http://www.w3.org/2000/svg" xmlns:xlink="http://www.w3.org/1999/xlink">
    <!-- Generator: Sketch 3.8.3 (29802) - http://www.bohemiancoding.com/sketch -->
    <title>Group 37</title>
    <desc>Created with Sketch.</desc>
    <defs></defs>
    <g id="Page-1" stroke="none" stroke-width="1" fill="none" fill-rule="evenodd">
        <g id="Group-37">
            <g id="Group-28" transform="translate(158.000000, 0.000000)" fill="#3C3C3B">
                <path d="M264.816465,72.6636306 C264.596899,72.716952 264.383986,72.7436126 264.16442,72.7436126 C262.966788,72.7436126 261.882265,71.9371276 261.576204,70.7174024 L246.432809,18.5024985 C246.073519,17.069488 246.945129,15.6098168 248.375634,15.2565631 C249.80614,14.8966441 251.256605,15.7631156 251.615895,17.2027913 L266.75929,69.4176952 C267.11858,70.8507057 266.24697,72.3037117 264.816465,72.6636306 L264.816465,72.6636306 Z M227.337227,72.7102868 C227.19085,72.7369474 227.044472,72.7436126 226.898095,72.7436126 C225.613967,72.7436126 224.48287,71.8171547 224.263304,70.5041171 L214.169925,18.2892132 C213.923745,16.8362072 214.908465,15.456518 216.365584,15.2099069 C217.822703,14.9566306 219.193327,15.9564054 219.439507,17.4094114 L229.53954,69.6309805 C229.779066,71.0839865 228.794346,72.4636757 227.337227,72.7102868 L227.337227,72.7102868 Z M189.857989,72.7369474 C189.778147,72.7436126 189.704958,72.7436126 189.63177,72.7436126 C188.254492,72.7436126 187.090128,71.6905165 186.970364,70.2908318 L181.920348,18.0759279 C181.800585,16.6029264 182.891761,15.3098844 184.362187,15.1832462 C185.832614,15.0166171 187.123395,16.1563604 187.249812,17.6293619 L192.299828,69.8442658 C192.419591,71.3172673 191.328415,72.6103093 189.857989,72.7369474 L189.857989,72.7369474 Z M155.040156,70.0708814 C155.040156,71.550548 153.842524,72.7436126 152.365444,72.7436126 C150.888364,72.7436126 149.690732,71.550548 149.690732,70.0708814 L149.690732,17.8493123 C149.690732,16.3696456 150.888364,15.1765811 152.365444,15.1765811 C153.842524,15.1765811 155.040156,16.3696456 155.040156,17.8493123 L155.040156,70.0708814 L155.040156,70.0708814 Z M117.760524,70.2908318 C117.647414,71.6905165 116.476396,72.7436126 115.099119,72.7436126 C115.02593,72.7436126 114.952741,72.7436126 114.879553,72.7369474 C113.409126,72.6103093 112.311297,71.3172673 112.437714,69.8442658 L117.48773,17.6293619 C117.607493,16.1563604 118.884967,15.0166171 120.368701,15.1832462 C121.839127,15.3098844 122.930303,16.6029264 122.81054,18.0759279 L117.760524,70.2908318 L117.760524,70.2908318 Z M80.4675843,70.5041171 C80.2480184,71.8171547 79.1169212,72.7436126 77.8327932,72.7436126 C77.6864159,72.7436126 77.5400387,72.7369474 77.3936614,72.7102868 C75.9365421,72.4636757 74.9518222,71.0839865 75.1980021,69.6309805 L85.2913811,17.4094114 C85.5375611,15.9564054 86.9081847,14.9566306 88.3653041,15.2099069 C89.8224234,15.456518 90.8071433,16.8362072 90.5609633,18.2892132 L80.4675843,70.5041171 L80.4675843,70.5041171 Z M43.1546843,70.7174024 C42.8552762,71.9371276 41.7641001,72.7436126 40.5664678,72.7436126 C40.3535554,72.7436126 40.1339895,72.716952 39.9144235,72.6636306 C38.4839183,72.3037117 37.6123081,70.8507057 37.9715978,69.4176952 L53.114993,17.2027913 C53.4742827,15.7631156 54.9247485,14.8966441 56.3552538,15.2565631 C57.785759,15.6098168 58.6573692,17.069488 58.2980795,18.5024985 L43.1546843,70.7174024 L43.1546843,70.7174024 Z M303.020935,78.1024054 L303.034242,78.1024054 L302.974361,77.9224459 C302.781409,77.1359565 302.535229,76.3627973 302.21586,75.6296291 L274.377563,0 L26.7205076,0 L0.858303157,76.5360916 C0.711925874,76.9493318 0.578855617,77.3692372 0.472399412,77.802473 L0.379250232,78.1024054 L0.392557258,78.1024054 C0.146377283,79.175497 0,80.2885796 0,81.434988 L0,82.3814414 C0,90.4796171 6.61359177,97.1047913 14.6976099,97.1047913 L20.2399861,97.1047913 C27.9247934,97.1047913 34.2722446,91.1128078 34.8777143,83.5611757 C35.5430656,83.654488 36.2217239,83.7211396 36.9136892,83.7211396 L42.4560654,83.7211396 C43.2611405,83.7211396 44.0396015,83.6344925 44.798102,83.5145195 C45.3836111,91.0861471 51.7377159,97.1047913 59.4424837,97.1047913 L64.9848599,97.1047913 C72.6763208,97.1047913 79.0171185,91.1128078 79.6225882,83.5611757 C80.294593,83.654488 80.9732513,83.7211396 81.6652166,83.7211396 L87.2075928,83.7211396 C88.0060144,83.7211396 88.7844754,83.6344925 89.5496293,83.5145195 C90.128485,91.0861471 96.4892432,97.1047913 104.194011,97.1047913 L109.729734,97.1047913 C117.421195,97.1047913 123.768646,91.1128078 124.374116,83.5611757 C125.039467,83.654488 125.718125,83.7211396 126.41009,83.7211396 L131.952467,83.7211396 C132.750888,83.7211396 133.529349,83.6344925 134.294503,83.5145195 C134.880012,91.0861471 141.234117,97.1047913 148.938885,97.1047913 L154.481261,97.1047913 C162.166069,97.1047913 168.51352,91.1128078 169.118989,83.5611757 C169.784341,83.654488 170.462999,83.7211396 171.161618,83.7211396 L176.697341,83.7211396 C177.502416,83.7211396 178.280877,83.6344925 179.046031,83.5145195 C179.624886,91.0861471 185.978991,97.1047913 193.683759,97.1047913 L199.226135,97.1047913 C206.917596,97.1047913 213.258394,91.1128078 213.863863,83.5611757 C214.535868,83.654488 215.214526,83.7211396 215.906492,83.7211396 L221.448868,83.7211396 C222.247289,83.7211396 223.02575,83.6344925 223.790904,83.5145195 C224.376414,91.0861471 230.730518,97.1047913 238.435286,97.1047913 L243.971009,97.1047913 C251.66247,97.1047913 258.009921,91.1128078 258.615391,83.5611757 C259.280742,83.654488 259.9594,83.7211396 260.651366,83.7211396 L266.193742,83.7211396 C266.992163,83.7211396 267.770624,83.6344925 268.535778,83.5145195 C269.121287,91.0861471 275.475392,97.1047913 283.18016,97.1047913 L288.722536,97.1047913 C296.806554,97.1047913 303.420146,90.4796171 303.420146,82.3814414 L303.420146,81.434988 C303.420146,80.2885796 303.273769,79.175497 303.020935,78.1024054 L303.020935,78.1024054 Z" id="Fill-8-Copy"></path>
                <path d="M52.5551373,180.011054 L52.5551373,168.253703 L105.909657,168.253703 L116.581891,168.253703 L169.929757,168.253703 L169.929757,180.011054 C169.929757,184.929946 165.950957,188.92238 161.040664,188.92238 L61.4442305,188.92238 C56.533938,188.92238 52.5551373,184.929946 52.5551373,180.011054 L52.5551373,180.011054 Z M61.4442305,126.923014 L105.909657,126.923014 L105.909657,158.989123 L52.5551373,158.989123 L52.5551373,135.827674 C52.5551373,130.908782 56.533938,126.923014 61.4442305,126.923014 L61.4442305,126.923014 Z M161.040664,126.923014 C165.950957,126.923014 169.929757,130.908782 169.929757,135.827674 L169.929757,158.989123 L116.581891,158.989123 L116.581891,126.923014 L161.040664,126.923014 Z M200.522609,180.364308 C200.522609,173.679147 205.938569,168.253703 212.618696,168.253703 L242.492968,168.253703 C249.173095,168.253703 254.589055,173.679147 254.589055,180.364308 L254.589055,252.674685 L279.193745,252.674685 L279.193745,105.001285 C272.773105,103.328329 267.510177,98.5627357 265.28125,92.3108108 L263.830784,92.3108108 C261.049616,100.122384 253.551107,105.694462 244.954768,105.694462 L239.412392,105.694462 C230.8094,105.694462 223.317544,100.122384 220.536376,92.3108108 L219.08591,92.3108108 C216.298088,100.122384 208.799579,105.694462 200.209894,105.694462 L194.667518,105.694462 C186.057872,105.694462 178.572671,100.122384 175.784849,92.3108108 L174.341036,92.3108108 C171.553214,100.122384 164.054706,105.694462 155.458367,105.694462 L149.915991,105.694462 C141.312999,105.694462 133.821143,100.122384 131.039975,92.3108108 L129.589509,92.3108108 C126.808341,100.122384 119.309832,105.694462 110.713493,105.694462 L105.171117,105.694462 C96.5681248,105.694462 89.0762693,100.122384 86.2951009,92.3108108 L84.8446351,92.3108108 C82.0568133,100.122384 74.5583043,105.694462 65.9686192,105.694462 L60.426243,105.694462 C51.8165974,105.694462 44.3247419,100.122384 41.5435736,92.3108108 L40.0931078,92.3108108 C37.864181,98.5560706 32.6012523,103.321664 26.1872659,105.001285 L26.1872659,252.674685 L200.522609,252.674685 L200.522609,180.364308 Z" id="Fill-10-Copy"></path>
            </g>
            <polygon id="Fill-73-Copy" fill="#72c126" points="0 280 620 280 620 262 0 262"></polygon>
            <polygon id="Fill-73-Copy" fill="#019beb" points="0 310 620 310 620 292 0 292"></polygon>
            <polygon id="Fill-73-Copy" fill="#ff5841" points="0 340 620 340 620 322 0 322"></polygon>
        </g>
    </g>
</svg>