<?xml version="1.0" encoding="UTF-8" standalone="no"?>
<svg viewBox="0 0 620 632" version="1.1" xmlns="http://www.w3.org/2000/svg" xmlns:xlink="http://www.w3.org/1999/xlink">
    <!-- Generator: Sketch 3.8.3 (29802) - http://www.bohemiancoding.com/sketch -->
    <title>Artboard 1</title>
    <desc>Created with Sketch.</desc>
    <defs></defs>
    <g id="Page-1" stroke="none" stroke-width="1" fill="none" fill-rule="evenodd">
        <g id="Artboard-1">
            <g id="Group-34" transform="translate(0.000000, 1.000000)">
                <polygon id="Fill-61-Copy" fill="#72c126" points="-5.46637505e-13 571 620 571 620 553 -5.46637505e-13 553"></polygon>
                <g id="Group-24" transform="translate(76.000000, 0.000000)" fill="#3C3C3B">
                    <path d="M161.444184,344.392 L197.365471,344.392 L197.365471,308.423818 L161.444184,308.423818 L161.444184,344.392 Z M161.444184,409.520727 L197.365471,409.520727 L197.365471,373.558394 L161.444184,373.558394 L161.444184,409.520727 Z M161.444184,474.620212 L197.365471,474.620212 L197.365471,438.657879 L161.444184,438.657879 L161.444184,474.620212 Z M96.3920013,344.392 L132.33082,344.392 L132.33082,308.423818 L96.3920013,308.423818 L96.3920013,344.392 Z M96.3920013,409.520727 L132.33082,409.520727 L132.33082,373.558394 L96.3920013,373.558394 L96.3920013,409.520727 Z M96.3920013,474.620212 L132.33082,474.620212 L132.33082,438.657879 L96.3920013,438.657879 L96.3920013,474.620212 Z M31.3924117,344.392 L67.3078551,344.392 L67.3078551,308.423818 L31.3924117,308.423818 L31.3924117,344.392 Z M31.3924117,409.520727 L67.3078551,409.520727 L67.3078551,373.558394 L31.3924117,373.558394 L31.3924117,409.520727 Z M31.3924117,474.620212 L67.3078551,474.620212 L67.3078551,438.657879 L31.3924117,438.657879 L31.3924117,474.620212 Z M-4.54747351e-13,541.971364 L226.490524,541.971364 L226.490524,278 L-4.54747351e-13,278 L-4.54747351e-13,541.971364 Z" id="Fill-58-Copy"></path>
                    <path d="M403.438341,344.392 L439.359628,344.392 L439.359628,308.423818 L403.438341,308.423818 L403.438341,344.392 Z M403.438341,409.520727 L439.359628,409.520727 L439.359628,373.558394 L403.438341,373.558394 L403.438341,409.520727 Z M403.438341,474.620212 L439.359628,474.620212 L439.359628,438.657879 L403.438341,438.657879 L403.438341,474.620212 Z M338.386158,344.392 L374.324976,344.392 L374.324976,308.423818 L338.386158,308.423818 L338.386158,344.392 Z M338.386158,409.520727 L374.324976,409.520727 L374.324976,373.558394 L338.386158,373.558394 L338.386158,409.520727 Z M338.386158,474.620212 L374.324976,474.620212 L374.324976,438.657879 L338.386158,438.657879 L338.386158,474.620212 Z M273.386568,344.392 L309.307855,344.392 L309.307855,308.423818 L273.386568,308.423818 L273.386568,344.392 Z M273.386568,409.520727 L309.307855,409.520727 L309.307855,373.558394 L273.386568,373.558394 L273.386568,409.520727 Z M273.386568,474.620212 L309.307855,474.620212 L309.307855,438.657879 L273.386568,438.657879 L273.386568,474.620212 Z M242,541.971364 L468.490524,541.971364 L468.490524,278 L242,278 L242,541.971364 Z" id="Fill-59-Copy"></path>
                    <path d="M403.438341,136.392 L439.359628,136.392 L439.359628,100.423818 L403.438341,100.423818 L403.438341,136.392 Z M403.438341,201.520727 L439.359628,201.520727 L439.359628,165.558394 L403.438341,165.558394 L403.438341,201.520727 Z M403.438341,266.620212 L439.359628,266.620212 L439.359628,230.657879 L403.438341,230.657879 L403.438341,266.620212 Z M338.386158,136.392 L374.324976,136.392 L374.324976,100.423818 L338.386158,100.423818 L338.386158,136.392 Z M338.386158,201.520727 L374.324976,201.520727 L374.324976,165.558394 L338.386158,165.558394 L338.386158,201.520727 Z M338.386158,266.620212 L374.324976,266.620212 L374.324976,230.657879 L338.386158,230.657879 L338.386158,266.620212 Z M273.386568,136.392 L309.307855,136.392 L309.307855,100.423818 L273.386568,100.423818 L273.386568,136.392 Z M273.386568,201.520727 L309.307855,201.520727 L309.307855,165.558394 L273.386568,165.558394 L273.386568,201.520727 Z M273.386568,266.620212 L309.307855,266.620212 L309.307855,230.657879 L273.386568,230.657879 L273.386568,266.620212 Z M242,305.565273 L468.490524,305.565273 L468.490524,70 L242,70 L242,305.565273 Z" id="Fill-60-Copy"></path>
                    <path d="M278.279216,19.8496601 L264.143281,22.5341147 C263.231662,22.7095692 262.851821,22.0954783 263.284256,21.1714177 L272.59913,1.34505406 C273.037408,0.420993456 272.657567,-0.163855029 271.751792,0.0408419406 L259.363126,2.84811467 C258.457351,3.05281164 257.475608,4.01781164 257.160047,5.00035709 L247.097178,36.4301147 C246.781618,37.4185086 247.260802,38.0442965 248.15489,37.8220541 L259.766342,35.0147813 C260.666274,34.7983874 261.256488,35.4592662 261.081177,36.4885995 L257.417171,58.3443874 C257.247703,59.3795692 257.51067,59.4965389 258.007385,58.6134177 L279.021368,21.1363268 C279.518083,20.2532056 279.184992,19.6800541 278.279216,19.8496601" id="Fill-62-Copy"></path>
                    <path d="M331.130935,41.9921212 C331.130935,47.1387879 329.278479,51.1917879 325.57941,54.1569697 C321.880342,57.116303 316.726189,58.6018182 310.134484,58.6018182 C304.051182,58.6018182 298.674968,57.4555152 294,55.1746061 L294,43.9455152 C297.845161,45.6591212 301.100108,46.8639091 303.758996,47.5657273 C306.423728,48.2733939 308.860555,48.624303 311.069478,48.624303 C313.716679,48.624303 315.744446,48.1096364 317.164468,47.0978485 C318.578645,46.0860606 319.285734,44.5771515 319.285734,42.5769697 C319.285734,41.4599091 318.976018,40.4656667 318.350741,39.5883939 C317.731307,38.7228182 316.813845,37.8864848 315.604197,37.0793939 C314.400393,36.272303 311.934347,34.9856364 308.223591,33.2193939 C304.74074,31.5818182 302.128601,30.0085758 300.393019,28.4996667 C298.651593,26.9966061 297.26079,25.2362121 296.22061,23.2360303 C295.180429,21.2358485 294.666183,18.8964545 294.666183,16.2178485 C294.666183,11.1764545 296.372546,7.21118182 299.785273,4.32787879 C303.203844,1.44457576 307.925562,0 313.950427,0 C316.907344,0 319.7357,0.350909091 322.423807,1.05272727 C325.111914,1.74869697 327.922738,2.73709091 330.856281,4.01790909 L326.958526,13.4105758 C323.92564,12.1648485 321.407001,11.2934242 319.42014,10.796303 C317.433278,10.3108788 315.481479,10.0535455 313.558898,10.0535455 C311.274008,10.0535455 309.520895,10.5916061 308.299559,11.6560303 C307.078224,12.7204545 306.470478,14.1123939 306.470478,15.826 C306.470478,16.8962727 306.715914,17.8203333 307.206785,18.6157273 C307.703501,19.4111212 308.486558,20.1714242 309.567644,20.9141818 C310.642887,21.6569394 313.196588,22.9903939 317.222905,24.9145455 C322.546525,27.4586364 326.193,30.0144242 328.168174,32.5760606 C330.143348,35.1318485 331.130935,38.2783333 331.130935,41.9921212" id="Fill-63-Copy"></path>
                    <polygon id="Fill-64-Copy" points="374.800746 58.0051818 342 58.0051818 342 1 374.800746 1 374.800746 10.9073333 354.078949 10.9073333 354.078949 23.4172424 373.363193 23.4172424 373.363193 33.3245758 354.078949 33.3245758 354.078949 48.0218182 374.800746 48.0218182"></polygon>
                    <polygon id="Fill-65-Copy" points="387 58.0051818 387 1 399.078949 1 399.078949 48.0218182 422.179136 48.0218182 422.179136 58.0051818"></polygon>
                    <polygon id="Fill-66-Copy" points="432 58.0051818 432 1 444.078949 1 444.078949 48.0218182 467.179136 48.0218182 467.179136 58.0051818"></polygon>
                </g>
                <polygon id="Fill-61-Copy" fill="#019beb" points="-5.46637505e-13 601 620 601 620 583 -5.46637505e-13 583"></polygon>
                <polygon id="Fill-61-Copy" fill="#ff5841" points="-5.46637505e-13 631 620 631 620 613 -5.46637505e-13 613"></polygon>
            </g>
        </g>
    </g>
</svg>