<?xml version="1.0" encoding="UTF-8" standalone="no"?>
<svg viewBox="0 0 620 632" version="1.1" xmlns="http://www.w3.org/2000/svg" xmlns:xlink="http://www.w3.org/1999/xlink">
    <!-- Generator: Sketch 3.8.3 (29802) - http://www.bohemiancoding.com/sketch -->
    <title>Artboard 1</title>
    <desc>Created with Sketch.</desc>
    <defs></defs>
    <g id="Page-1" stroke="none" stroke-width="1" fill="none" fill-rule="evenodd">
        <g id="Artboard-1">
            <g id="Group-29" transform="translate(0.000000, 43.000000)">
                <polygon id="Fill-1-Copy" fill="#3C3C3B" points="488 78.5276061 547.623376 78.5276061 547.623376 0 488 0"></polygon>
                <polygon id="Fill-2-Copy" fill="#3C3C3B" points="488 150.303273 547.623376 150.303273 547.623376 95 488 95"></polygon>
                <polygon id="Fill-3-Copy" fill="#3C3C3B" points="488 499.843121 547.623376 499.843121 547.623376 167 488 167"></polygon>
                <path d="M349.537588,355.786364 L424.354611,355.786364 L424.354611,303.927848 L349.537588,303.927848 L349.537588,355.786364 Z M349.537588,454.19297 L424.354611,454.19297 L424.354611,402.281818 L349.537588,402.281818 L349.537588,454.19297 Z M228.263069,355.786364 L303.068404,355.786364 L303.068404,303.927848 L228.263069,303.927848 L228.263069,355.786364 Z M228.263069,454.19297 L303.068404,454.19297 L303.068404,402.281818 L228.263069,402.281818 L228.263069,454.19297 Z M107.00608,355.786364 L181.776353,355.786364 L181.776353,303.927848 L107.00608,303.927848 L107.00608,355.786364 Z M107.00608,454.19297 L181.776353,454.19297 L181.776353,402.281818 L107.00608,402.281818 L107.00608,454.19297 Z M472.34316,252.461182 L339.889623,197 L339.889623,249.753333 L199.488639,197 L199.488639,249.735788 L59,197 L59,499.489485 L472.34316,499.489485 L472.34316,252.461182 Z" id="Fill-4-Copy" fill="#3C3C3B"></path>
                <polygon id="Fill-5-Copy" fill="#72c126" points="0 529 620 529 620 511 0 511"></polygon>
                <polygon id="Fill-32-Copy" fill="#FEFEFE" points="507.171684 241.671364 535.548741 214.470061 522.93217 214.470061 530.388745 190 502 217.213 514.616571 217.213"></polygon>
                <polygon id="Fill-5-Copy" fill="#019beb" points="0 559 620 559 620 541 0 541"></polygon>
                <polygon id="Fill-5-Copy" fill="#ff5841" points="0 589 620 589 620 571 0 571"></polygon>
            </g>
        </g>
    </g>
</svg>