<?xml version="1.0" encoding="UTF-8"?>
<svg width="380px" height="288px" viewBox="0 0 380 288" version="1.1" xmlns="http://www.w3.org/2000/svg" xmlns:xlink="http://www.w3.org/1999/xlink">
    <!-- Generator: Sketch 43.2 (39069) - http://www.bohemiancoding.com/sketch -->
    <title>api</title>
    <desc>Created with Sketch.</desc>
    <defs></defs>
    <g id="Page-1" stroke="none" stroke-width="1" fill="none" fill-rule="evenodd">
        <g id="api" fill-rule="nonzero" fill="#019BEB">
            <path d="M91.425,111.435 C90.36,109.138 88.059,107.668 85.528,107.668 L85.513,107.668 C82.976,107.674 80.674,109.155 79.618,111.462 L47.402,181.83 C45.908,185.094 47.342,188.952 50.606,190.446 C51.483,190.847 52.403,191.037 53.308,191.037 C55.772,191.037 58.129,189.628 59.222,187.241 L67.302,169.592 L104.052,169.592 L112.245,187.269 C113.755,190.526 117.618,191.943 120.876,190.433 C124.133,188.923 125.549,185.059 124.04,181.802 L91.425,111.435 Z M73.254,156.592 L85.565,129.704 L98.027,156.592 L73.254,156.592 Z" id="Shape"></path>
            <path d="M166.496,106.865 L135.07,106.865 C131.48,106.865 128.57,109.775 128.57,113.365 L128.57,184.535 C128.57,188.125 131.48,191.035 135.07,191.035 C138.66,191.035 141.57,188.125 141.57,184.535 L141.57,157.5 L166.496,157.5 C180.456,157.5 191.812,146.143 191.812,132.184 C191.813,118.223 180.456,106.865 166.496,106.865 Z M166.496,144.5 L141.57,144.5 L141.57,119.865 L166.496,119.865 C173.288,119.865 178.812,125.391 178.812,132.183 C178.813,138.975 173.288,144.5 166.496,144.5 Z" id="Shape"></path>
            <path d="M203.313,106.865 C199.723,106.865 196.813,109.775 196.813,113.365 L196.813,184.535 C196.813,188.125 199.723,191.035 203.313,191.035 C206.903,191.035 209.813,188.125 209.813,184.535 L209.813,113.365 C209.813,109.775 206.902,106.865 203.313,106.865 Z" id="Shape"></path>
            <path d="M368.317,0.487 L11.684,0.487 C5.241,0.487 0,5.73 0,12.173 L0,275.829 C0,282.271 5.241,287.513 11.684,287.513 L368.318,287.513 C374.76,287.513 380.001,282.271 380.001,275.829 L380.001,12.173 C380,5.73 374.76,0.487 368.317,0.487 Z M280.949,213.268 C286.111,201.076 298.002,193.198 311.244,193.198 C315.655,193.198 319.965,194.076 324.057,195.808 C340.753,202.88 348.586,222.216 341.518,238.913 C336.351,251.104 324.46,258.981 311.224,258.981 C311.224,258.981 311.224,258.981 311.223,258.981 C306.812,258.981 302.502,258.103 298.413,256.37 C290.324,252.946 284.052,246.577 280.754,238.435 C277.455,230.294 277.524,221.356 280.949,213.268 Z M320.868,33.771 C327.712,33.771 333.255,39.318 333.255,46.158 C333.255,53 327.712,58.545 320.868,58.545 C314.029,58.545 308.483,53 308.483,46.158 C308.483,39.318 314.029,33.771 320.868,33.771 Z M283.715,33.771 C290.554,33.771 296.101,39.318 296.101,46.158 C296.101,53 290.554,58.545 283.715,58.545 C276.876,58.545 271.328,53 271.328,46.158 C271.328,39.318 276.876,33.771 283.715,33.771 Z M246.561,33.771 C253.4,33.771 258.942,39.318 258.942,46.158 C258.942,53 253.4,58.545 246.561,58.545 C239.717,58.545 234.174,53 234.174,46.158 C234.175,39.318 239.718,33.771 246.561,33.771 Z M21.27,268.01 L21.27,95.424 L358.73,95.424 L358.73,162.698 C357.193,160.496 355.053,158.678 352.403,157.555 L331.789,148.829 C329.954,148.051 328.018,147.657 326.035,147.657 C320.079,147.657 314.732,151.197 312.412,156.677 L311.159,159.636 C301.932,159.765 292.778,161.891 284.431,165.829 L282.005,163.722 C280.831,162.704 279.506,161.881 278.073,161.275 C276.232,160.496 274.291,160.101 272.302,160.101 C268.026,160.101 263.961,161.959 261.148,165.2 L246.477,182.115 C243.894,185.101 242.622,188.909 242.896,192.85 C243.181,196.791 244.98,200.385 247.96,202.965 L250.377,205.063 C247.622,213.912 246.814,223.242 248.012,232.407 L245.263,234.061 C238.282,238.261 236.021,247.363 240.224,254.354 L249.044,269 L22.26,269 C21.714,269 21.27,268.556 21.27,268.01 Z" id="Shape"></path>
        </g>
    </g>
</svg>