<?xml version="1.0" encoding="UTF-8"?>
<svg width="200px" height="176px" viewBox="0 0 200 176" version="1.1" xmlns="http://www.w3.org/2000/svg" xmlns:xlink="http://www.w3.org/1999/xlink">
    <!-- Generator: Sketch 43.2 (39069) - http://www.bohemiancoding.com/sketch -->
    <title>analysing</title>
    <desc>Created with Sketch.</desc>
    <defs>
        <polygon id="path-1" points="100.01875 0.59625 0.0375 0.59625 0.0375 175.625625 200 175.625625 200 0.59625"></polygon>
        <polygon id="path-3" points="100.01875 0.59625 0.0375 0.59625 0.0375 175.625625 200 175.625625 200 0.59625"></polygon>
        <polygon id="path-5" points="100.01875 0.59625 0.0375 0.59625 0.0375 175.625625 200 175.625625 200 0.59625"></polygon>
    </defs>
    <g id="Page-1" stroke="none" stroke-width="1" fill="none" fill-rule="evenodd">
        <g id="analysing">
            <g id="Fill-1-Clipped">
                <mask id="mask-2" fill="white">
                    <use xlink:href="#path-1"></use>
                </mask>
                <g id="path-1"></g>
                <path d="M183.3425,0.59625 L16.6575,0.59625 C7.473125,0.59625 0,8.069375 0,17.254375 L0,125.891875 C0,135.07625 7.473125,142.549375 16.6575,142.549375 L70.36375,142.549375 L60.170625,165.0275 C59.11875,167.349375 59.31625,170.0475 60.695625,172.188125 C62.0775,174.329375 64.453125,175.625625 67.0018747,175.625625 L132.998125,175.625625 C133.003125,175.623125 133.005625,175.623125 133.0075,175.625625 C137.150625,175.625625 140.5075,172.26625 140.5075,168.125625 C140.5075,166.878125 140.205,165.70125 139.665625,164.66625 L129.63625,142.549375 L183.3425,142.549375 C192.526875,142.549375 200,135.07625 200,125.891875 L200,17.254375 C200,8.069375 192.526875,0.59625 183.3425,0.59625 L183.3425,0.59625 Z M185,125.891875 C185,126.805 184.255625,127.549375 183.3425,127.549375 L16.6575,127.549375 C15.744375,127.549375 15,126.805 15,125.891875 L15,17.254375 C15,16.34125 15.744375,15.59625 16.6575,15.59625 L183.3425,15.59625 C184.255625,15.59625 185,16.34125 185,17.254375 L185,125.891875 Z" id="Fill-1" fill="#019BEB" fill-rule="nonzero" mask="url(#mask-2)"></path>
            </g>
            <g id="Fill-4-Clipped">
                <mask id="mask-4" fill="white">
                    <use xlink:href="#path-3"></use>
                </mask>
                <g id="path-1"></g>
                <path d="M36.420625,69.4881247 C41.1375,70.0206247 45.595625,68.30875 48.735625,65.205625 L89.695,79.925 C90.1175,87.1275 95.67875,93.21625 103.08625,94.04875 C111.365,94.98375 118.8625,89.005 119.795,80.7256247 C119.860625,80.1375 119.8875,79.55375 119.885,78.9781247 L154.450625,53.760625 C156.169375,54.735 158.110625,55.38875 160.195,55.623125 C168.47625,56.55625 175.971875,50.579375 176.904375,42.298125 C177.836875,34.016875 171.858125,26.521875 163.579375,25.589375 C155.298125,24.656875 147.8025,30.633125 146.87,38.914375 C146.5725,41.563125 146.985,44.131875 147.951875,46.43375 L116.430625,69.4293747 C114.02125,66.505 110.5225,64.47375 106.47,64.014375 C100.73,63.37 95.36875,66.045625 92.3068747,70.50625 L53.095625,56.411875 C53.105625,56.32875 53.12,56.248125 53.13,56.163125 C54.0625,47.881875 48.08625,40.38625 39.805,39.45375 C31.52375,38.52125 24.028125,44.498125 23.095625,52.779375 C22.163125,61.060625 28.139375,68.5556247 36.420625,69.4881247 L36.420625,69.4881247 Z M156.56,40.005625 C156.889375,37.06625 159.550625,34.946875 162.4875,35.276875 C165.425,35.60875 167.54875,38.2675 167.216875,41.206875 C166.885,44.14375 164.22625,46.265625 161.286875,45.933125 C158.349375,45.60375 156.228125,42.9425 156.56,40.005625 L156.56,40.005625 Z M99.4481247,78.43125 C99.78,75.49375 102.43875,73.3725 105.37625,73.7043747 C108.315625,74.03625 110.436875,76.695 110.105,79.6318747 C109.773125,82.5718747 107.114375,84.6931247 104.175,84.36125 C101.24,84.0293747 99.11875,81.3706247 99.4481247,78.43125 L99.4481247,78.43125 Z M32.783125,53.870625 C33.115,50.933125 35.77625,48.811875 38.713125,49.14375 C41.650625,49.475625 43.771875,52.134375 43.44,55.071875 C43.110625,58.01125 40.449375,60.13 37.5125,59.800625 C34.5725,59.46875 32.45375,56.81 32.783125,53.870625 L32.783125,53.870625 Z" id="Fill-4" fill="#019BEB" fill-rule="nonzero" mask="url(#mask-4)"></path>
            </g>
            <g id="Fill-5-Clipped">
                <mask id="mask-6" fill="white">
                    <use xlink:href="#path-5"></use>
                </mask>
                <g id="path-1"></g>
                <path d="M161.899375,63.84375 C161.1525,63.84375 160.395625,63.799375 159.64875,63.716875 C158.054375,63.538125 156.50375,63.1725 155.019375,62.6275 L124.601875,84.82 C123.3275,94.7906247 114.863125,102.26875 104.7875,102.26875 C104.040625,102.26875 103.28375,102.2275 102.53875,102.144375 C93.9768747,101.18 87.1656247,94.9325 85.3,86.7781247 L49.714375,73.99 C46.345,76.4043747 42.326875,77.7081247 38.1225,77.7081247 L38.12,77.7081247 C37.373125,77.7081247 36.61875,77.6668747 35.87375,77.58375 C30.67875,76.9981247 26.171875,74.45625 22.998125,70.7818747 L22.998125,119.97875 L176.999375,119.97875 L176.999375,56.944375 C173.32,61.1925 167.895625,63.84375 161.899375,63.84375 L161.899375,63.84375 Z" id="Fill-5" fill="#FFFFFF" fill-rule="nonzero" mask="url(#mask-6)"></path>
            </g>
        </g>
    </g>
</svg>