<?xml version="1.0" encoding="UTF-8"?>
<svg width="200px" height="176px" viewBox="0 0 200 176" version="1.1" xmlns="http://www.w3.org/2000/svg" xmlns:xlink="http://www.w3.org/1999/xlink">
    <!-- Generator: Sketch 43.2 (39069) - http://www.bohemiancoding.com/sketch -->
    <title>analysing</title>
    <desc>Created with Sketch.</desc>
    <defs>
        <polygon id="path-1" points="100.01875 0.59625 0.0375 0.59625 0.0375 175.625625 200 175.625625 200 0.59625"></polygon>
        <polygon id="path-3" points="100.01875 0.59625 0.0375 0.59625 0.0375 175.625625 200 175.625625 200 0.59625"></polygon>
        <polygon id="path-5" points="100.01875 0.59625 0.0375 0.59625 0.0375 175.625625 200 175.625625 200 0.59625"></polygon>
    </defs>
    <g id="Page-1" stroke="none" stroke-width="1" fill="none" fill-rule="evenodd">
        <g id="analysing">
            <g id="Fill-1-Clipped">
                <mask id="mask-2" fill="white">
                    <use xlink:href="#path-1"></use>
                </mask>
                <g id="path-1"></g>
                <path d="M183.3425,0.59625 L16.6575,0.59625 C7.473125,0.59625 0,8.069375 0,17.254375 L0,125.891875 C0,135.07625 7.473125,142.549375 16.6575,142.549375 L70.36375,142.549375 L60.170625,165.0275 C59.11875,167.349375 59.31625,170.0475 60.695625,172.188125 C62.0775,174.329375 64.453125,175.625625 67.0018747,175.625625 L132.998125,175.625625 C133.003125,175.623125 133.005625,175.623125 133.0075,175.625625 C137.150625,175.625625 140.5075,172.26625 140.5075,168.125625 C140.5075,166.878125 140.205,165.70125 139.665625,164.66625 L129.63625,142.549375 L183.3425,142.549375 C192.526875,142.549375 200,135.07625 200,125.891875 L200,17.254375 C200,8.069375 192.526875,0.59625 183.3425,0.59625 L183.3425,0.59625 Z M185,125.891875 C185,126.805 184.255625,127.549375 183.3425,127.549375 L16.6575,127.549375 C15.744375,127.549375 15,126.805 15,125.891875 L15,17.254375 C15,16.34125 15.744375,15.59625 16.6575,15.59625 L183.3425,15.59625 C184.255625,15.59625 185,16.34125 185,17.254375 L185,125.891875 Z" id="Fill-1" fill="#019BEB" fill-rule="nonzero" mask="url(#mask-2)"></path>
            </g>
            <g id="Fill-4-Clipped">
                <mask id="mask-4" fill="white">
                    <use xlink:href="#path-3"></use>
                </mask>
                <g id="path-1"></g>
            </g>
            <g id="Fill-5-Clipped">
                <mask id="mask-6" fill="white">
                    <use xlink:href="#path-5"></use>
                </mask>
                <g id="path-1"></g>
                <path d="M161.899375,63.84375 C161.1525,63.84375 160.395625,63.799375 159.64875,63.716875 C158.054375,63.538125 156.50375,63.1725 155.019375,62.6275 L124.601875,84.82 C123.3275,94.7906247 114.863125,102.26875 104.7875,102.26875 C104.040625,102.26875 103.28375,102.2275 102.53875,102.144375 C93.9768747,101.18 87.1656247,94.9325 85.3,86.7781247 L49.714375,73.99 C46.345,76.4043747 42.326875,77.7081247 38.1225,77.7081247 L38.12,77.7081247 C37.373125,77.7081247 36.61875,77.6668747 35.87375,77.58375 C30.67875,76.9981247 26.171875,74.45625 22.998125,70.7818747 L22.998125,119.97875 L176.999375,119.97875 L176.999375,56.944375 C173.32,61.1925 167.895625,63.84375 161.899375,63.84375 L161.899375,63.84375 Z" id="Fill-5" fill="#FFFFFF" fill-rule="nonzero" mask="url(#mask-6)"></path>
            </g>
            <g id="6c19b1be2641dc01de423b02cfa47b8b" transform="translate(60.000000, 29.000000)" fill-rule="nonzero" fill="#019BEB">
                <path d="M78.2644737,68.3482653 L69.8269737,55.9285714 L69.8269737,55.9285714 L52.9342105,31.0714286 L52.9342105,6.21428571 L56.0427632,6.21428571 C57.7569079,6.21428571 59.1513158,4.8205102 59.1513158,3.10714286 C59.1513158,1.39377551 57.7569079,0 56.0427632,0 L52.9342105,0 L28.0657895,0 L24.9572368,0 C23.2430921,0 21.8486842,1.39377551 21.8486842,3.10714286 C21.8486842,4.8205102 23.2430921,6.21428571 24.9572368,6.21428571 L28.0657895,6.21428571 L28.0657895,31.0714286 L11.1730263,55.9285714 L11.1730263,55.9285714 L2.73552632,68.3482653 C-3.41940789,78.6107143 1.33223684,87 13.3046053,87 L13.3046053,87 L67.7042763,87 C79.6677632,87 84.4194079,78.6107143 78.2644737,68.3482653 Z M33.2082237,34.5603061 C33.9098684,33.5305102 34.2828947,32.3142857 34.2828947,31.0714286 L34.2828947,6.21428571 L46.7171053,6.21428571 L46.7171053,31.0714286 C46.7171053,32.3142857 47.0901316,33.5305102 47.7917763,34.5603061 L62.3131579,55.9285714 L18.6868421,55.9285714 L33.2082237,34.5603061 Z" id="Shape"></path>
            </g>
        </g>
    </g>
</svg>