<svg id="energyworx" xmlns="http://www.w3.org/2000/svg" viewBox="0 0 128.85 19.59"><defs><style>.cls-1{fill:#fff;}</style></defs><title>ewx-logo-white</title><path class="cls-1" d="M13.07,15.55a2.36,2.36,0,0,1-1.33.31H4.49a3.26,3.26,0,0,0,1.19,1.91,3.45,3.45,0,0,0,2.19.72,6.86,6.86,0,0,0,1.35-.13l1.35-.29L11.1,21a9.68,9.68,0,0,1-1.73.51,9.49,9.49,0,0,1-1.8.16,7.89,7.89,0,0,1-2.82-.5,6.77,6.77,0,0,1-2.27-1.4A6.42,6.42,0,0,1,1,17.6a7,7,0,0,1-.55-2.83,7,7,0,0,1,.51-2.68A6.49,6.49,0,0,1,2.35,9.93a6.7,6.7,0,0,1,4.8-2,6,6,0,0,1,2.43.51,6.56,6.56,0,0,1,2,1.38,6.8,6.8,0,0,1,1.39,2,6,6,0,0,1,.52,2.45A1.4,1.4,0,0,1,13.07,15.55ZM9.58,13.7a3.7,3.7,0,0,0-.21-1,3,3,0,0,0-.5-.9,2.35,2.35,0,0,0-.75-.65,2.14,2.14,0,0,0-1-.25A2.32,2.32,0,0,0,6,11.11a2.37,2.37,0,0,0-.77.63,3.48,3.48,0,0,0-.5.91,5.37,5.37,0,0,0-.26,1H9.58Z" transform="translate(-0.42 -7.87)"/><path class="cls-1" d="M26.63,20.52a1.84,1.84,0,0,1-.4.62,2.11,2.11,0,0,1-.61.41,1.94,1.94,0,0,1-2.1-.4A1.8,1.8,0,0,1,23,19.81V13.4a2.29,2.29,0,0,0-2.28-2.28,2.14,2.14,0,0,0-1.59.66,2.2,2.2,0,0,0-.65,1.6v8.07H14.62V9.83a1.85,1.85,0,0,1,.15-.74,2.18,2.18,0,0,1,.4-.63A1.83,1.83,0,0,1,15.76,8a1.71,1.71,0,0,1,.75-.16,1.23,1.23,0,0,1,1.14.55,3.1,3.1,0,0,1,.45,1.21,3.61,3.61,0,0,1,1.53-1.29,4.87,4.87,0,0,1,2-.42,5.59,5.59,0,0,1,2,.35,4.89,4.89,0,0,1,1.65,1,4.56,4.56,0,0,1,1.11,1.52,5,5,0,0,1,.39,2v7A2,2,0,0,1,26.63,20.52Z" transform="translate(-0.42 -7.87)"/><path class="cls-1" d="M40.55,15.55a2.36,2.36,0,0,1-1.33.31H32a3.26,3.26,0,0,0,1.19,1.91,3.43,3.43,0,0,0,2.19.72,6.93,6.93,0,0,0,1.35-.13l1.35-.29L38.57,21a9.34,9.34,0,0,1-1.72.51,9.49,9.49,0,0,1-1.8.16,7.89,7.89,0,0,1-2.82-.5A6.77,6.77,0,0,1,30,19.77a6.42,6.42,0,0,1-1.51-2.17,7,7,0,0,1-.55-2.83,7,7,0,0,1,.51-2.68,6.62,6.62,0,0,1,1.41-2.16A6.75,6.75,0,0,1,32,8.48a6.57,6.57,0,0,1,2.67-.54,6,6,0,0,1,2.43.51,6.56,6.56,0,0,1,2,1.38,7,7,0,0,1,1.39,2A6,6,0,0,1,41,14.3,1.42,1.42,0,0,1,40.55,15.55ZM37.06,13.7a3.7,3.7,0,0,0-.21-1,3,3,0,0,0-.5-.9,2.47,2.47,0,0,0-.75-.65,2.14,2.14,0,0,0-1-.25,2.27,2.27,0,0,0-1.08.24,2.37,2.37,0,0,0-.77.63,3.48,3.48,0,0,0-.5.91,5.37,5.37,0,0,0-.26,1h5.09Z" transform="translate(-0.42 -7.87)"/><path class="cls-1" d="M50,10.64a2.21,2.21,0,0,1-.57.57,4.42,4.42,0,0,1-.78.41,7.77,7.77,0,0,0-.89.41,4.15,4.15,0,0,0-.84.57,2.72,2.72,0,0,0-.67.85,2.49,2.49,0,0,0-.27.94,9,9,0,0,0-.05,1.07v6l-3.83,0V9.85a.81.81,0,0,1,.18-.55,2.19,2.19,0,0,1,.44-.41.74.74,0,0,1,.68-.14,1.38,1.38,0,0,1,.59.43,3.79,3.79,0,0,1,.48.76,5.63,5.63,0,0,1,.36.86,4,4,0,0,1,.28-.34,9.19,9.19,0,0,1,.72-.74,6.27,6.27,0,0,1,1-.81,7.85,7.85,0,0,1,1-.52,2.1,2.1,0,0,1,1-.2,1.61,1.61,0,0,1,1,.52,1.51,1.51,0,0,1,.41,1.07A1.53,1.53,0,0,1,50,10.64Z" transform="translate(-0.42 -7.87)"/><path class="cls-1" d="M62.86,23a6.52,6.52,0,0,1-1.34,2.34,6.24,6.24,0,0,1-2.17,1.54,7.39,7.39,0,0,1-3,.55,9.65,9.65,0,0,1-1.41-.1,8.76,8.76,0,0,1-1.37-.29.25.25,0,0,1-.1-.08.46.46,0,0,0-.1-.07,5.5,5.5,0,0,1,0-.58c0-.33.07-.67.11-1s.08-.7.12-1,.07-.52.07-.6c.44.12.89.22,1.35.31a7,7,0,0,0,1.38.14,2.71,2.71,0,0,0,2.29-1,3.73,3.73,0,0,0,.76-2.38,1.81,1.81,0,0,0,0-.38,3.76,3.76,0,0,1-1.41,1,4.47,4.47,0,0,1-1.74.35,5.67,5.67,0,0,1-2.54-.55,5.73,5.73,0,0,1-1.93-1.47,6.53,6.53,0,0,1-1.21-2.16A7.91,7.91,0,0,1,50.27,15a8.31,8.31,0,0,1,.42-2.62,7.17,7.17,0,0,1,1.21-2.27,6.14,6.14,0,0,1,1.94-1.6,5.41,5.41,0,0,1,2.61-.61,4.56,4.56,0,0,1,2,.43,3.8,3.8,0,0,1,1.51,1.31,3,3,0,0,1,.41-1.26,1.27,1.27,0,0,1,1.16-.53,1.66,1.66,0,0,1,1.37.55,2.08,2.08,0,0,1,.46,1.41V20.08A9,9,0,0,1,62.86,23Zm-3.22-9.08a4.59,4.59,0,0,0-.23-.92,2.73,2.73,0,0,0-.46-.81,2.5,2.5,0,0,0-.74-.62,2.59,2.59,0,0,0-1.22-.3,2.55,2.55,0,0,0-1.26.3,2.76,2.76,0,0,0-.91.78,3.35,3.35,0,0,0-.53,1.11,4.48,4.48,0,0,0-.18,1.27,5.8,5.8,0,0,0,.16,1.31,3.54,3.54,0,0,0,.51,1.15A2.56,2.56,0,0,0,57,18.34a2.23,2.23,0,0,0,1.2-.31,2.79,2.79,0,0,0,.85-.79,3.57,3.57,0,0,0,.5-1.1,4.4,4.4,0,0,0,.18-1.22A7.93,7.93,0,0,0,59.64,13.94Z" transform="translate(-0.42 -7.87)"/><path class="cls-1" d="M76.5,10.3a5.1,5.1,0,0,1-.24.77c-.07.25-.2.64-.38,1.18s-.4,1.17-.65,1.9-.55,1.52-.86,2.37-.64,1.7-1,2.56-.66,1.68-1,2.48-.62,1.52-.88,2.16-.49,1.16-.68,1.56a2.24,2.24,0,0,1-.39.68,2.81,2.81,0,0,1-.68,1,1.59,1.59,0,0,1-1.13.4,2,2,0,0,1-1.3-.48,1.52,1.52,0,0,1-.59-1.23,2.9,2.9,0,0,1,.28-1.11,9.18,9.18,0,0,1,.32-.87c.16-.42.35-.84.54-1.28l.55-1.21.3-.64-4.3-11,3.45-1.42L70.69,16l2.16-6.53a3.09,3.09,0,0,1,.65-1.1,1.49,1.49,0,0,1,1.17-.46A1.91,1.91,0,0,1,76,8.44a1.72,1.72,0,0,1,.57,1.32A2.8,2.8,0,0,1,76.5,10.3Z" transform="translate(-0.42 -7.87)"/><path class="cls-1" d="M80.1,8l3.21,10.27,3-9.23h2.33l2.93,9.23,3-9.53a1.18,1.18,0,0,1,.42-.56A1,1,0,0,1,95.57,8a1.1,1.1,0,0,1,.77.3,1,1,0,0,1,.32.75,1,1,0,0,1-.07.39l-3.78,11.1a3.11,3.11,0,0,1-.43.81,1.2,1.2,0,0,1-1.63,0,2.23,2.23,0,0,1-.42-.76l-2.9-9.16L84.5,20.6a2.09,2.09,0,0,1-.43.76,1,1,0,0,1-.79.31,1,1,0,0,1-.84-.33,2.42,2.42,0,0,1-.43-.81L78,8.69Z" transform="translate(-0.42 -7.87)"/><path class="cls-1" d="M98.17,12.3a7.18,7.18,0,0,1,1.14-2.18,5.72,5.72,0,0,1,1.84-1.54,5.53,5.53,0,0,1,5,0A5.58,5.58,0,0,1,108,10.12a7,7,0,0,1,1.15,2.18,8.29,8.29,0,0,1,.39,2.52,8.68,8.68,0,0,1-.38,2.51A7.27,7.27,0,0,1,108,19.55a5.68,5.68,0,0,1-1.84,1.57,5.06,5.06,0,0,1-2.48.6,5.15,5.15,0,0,1-2.51-.6,5.83,5.83,0,0,1-1.85-1.57,7.3,7.3,0,0,1-1.14-2.22,8.41,8.41,0,0,1-.38-2.54A8.19,8.19,0,0,1,98.17,12.3Zm2,4.22a5.92,5.92,0,0,0,.62,1.63,3.66,3.66,0,0,0,1.1,1.21,2.81,2.81,0,0,0,1.65.47,3.08,3.08,0,0,0,1.73-.46,3.51,3.51,0,0,0,1.14-1.19,5.65,5.65,0,0,0,.64-1.62,8.33,8.33,0,0,0,.19-1.77,8,8,0,0,0-.19-1.72,5.12,5.12,0,0,0-.65-1.59,4,4,0,0,0-1.14-1.17,3.07,3.07,0,0,0-1.69-.46,2.77,2.77,0,0,0-1.65.48,3.68,3.68,0,0,0-1.12,1.2,5.45,5.45,0,0,0-.63,1.6,7.71,7.71,0,0,0-.2,1.69A7.87,7.87,0,0,0,100.21,16.52Z" transform="translate(-0.42 -7.87)"/><path class="cls-1" d="M111.53,9.09a1,1,0,0,1,.32-.75,1.07,1.07,0,0,1,.75-.3,1.31,1.31,0,0,1,.72.25.79.79,0,0,1,.34.67c0,.22,0,.43,0,.63s0,.42,0,.64a3.6,3.6,0,0,1,.37-.77,4.6,4.6,0,0,1,.57-.73,2.87,2.87,0,0,1,.72-.55,1.75,1.75,0,0,1,.82-.21,1.27,1.27,0,0,1,.86.32,1.06,1.06,0,0,1,.36.82.78.78,0,0,1-.28.65,3.7,3.7,0,0,1-.67.41l-.88.43a3.1,3.1,0,0,0-.88.72,4,4,0,0,0-.67,1.25,6.44,6.44,0,0,0-.27,2v6.85l-2.11,0Z" transform="translate(-0.42 -7.87)"/><path class="cls-1" d="M118.28,9.14,120,8l3.6,4.81,3.15-4.24a1.4,1.4,0,0,1,.42-.42.93.93,0,0,1,.55-.18,1,1,0,0,1,.72.3.94.94,0,0,1,.29.7,1.2,1.2,0,0,1-.24.72l-3.6,4.69L129,19.91a1.2,1.2,0,0,1,.25.74.94.94,0,0,1-.3.71,1,1,0,0,1-.72.29,1,1,0,0,1-.55-.17,1.49,1.49,0,0,1-.42-.41L123.62,16l-3.68,5.08a1.27,1.27,0,0,1-.42.41,1,1,0,0,1-.55.17,1,1,0,0,1-.72-.29,1,1,0,0,1-.29-.71,1.19,1.19,0,0,1,.24-.74l4.13-5.51Z" transform="translate(-0.42 -7.87)"/></svg>