<?xml version="1.0" encoding="UTF-8"?>
<svg width="180px" height="34px" viewBox="0 0 180 34" version="1.1" xmlns="http://www.w3.org/2000/svg" xmlns:xlink="http://www.w3.org/1999/xlink">
    <!-- Generator: Sketch 51.3 (57544) - http://www.bohemiancoding.com/sketch -->
    <title>logo</title>
    <desc>Created with Sketch.</desc>
    <defs></defs>
    <g id="Page-1" stroke="none" stroke-width="1" fill="none" fill-rule="evenodd">
        <g id="logo" fill-rule="nonzero">
            <path d="M-1.11110733e-15,8.73529412 C-0.00251345039,8.36385621 0.151172521,8.00845741 0.423529412,7.75588235 C0.679211437,7.48008775 1.04014893,7.32608775 1.41617647,7.33235294 C1.68188151,7.32123434 1.94477383,7.39041653 2.17058824,7.53088235 C2.34496569,7.66298653 2.47810229,7.8420323 2.55441176,8.04705882 C2.65037352,8.26437124 2.70426626,8.49790645 2.71323529,8.73529412 C2.71323529,8.98676471 2.71323529,9.225 2.71323529,9.47647059 C3.19560811,8.76664478 3.86417668,8.20339866 4.64558824,7.84852941 C6.36940033,7.03549047 8.3823467,7.11956931 10.0323529,8.07352941 C10.9370735,8.59179928 11.648036,9.39105131 12.0573529,10.35 C12.5505697,9.39775815 13.3213441,8.61775295 14.2676471,8.11323529 C15.2247106,7.60187765 16.292835,7.33371027 17.3779412,7.33235294 C19.0392924,7.25114841 20.6641993,7.83725852 21.8911765,8.96029412 C23.0653713,10.1487552 23.6809663,11.77912 23.5852941,13.4470588 L23.5852941,24.0352941 C23.5863219,24.4050796 23.444004,24.7608743 23.1882353,25.0279412 C22.9356602,25.3002981 22.5802614,25.453984 22.2088235,25.4514706 C21.8419874,25.4502905 21.492095,25.296913 21.2426471,25.0279412 C20.9783729,24.7654197 20.8305537,24.4077926 20.8323529,24.0352941 L20.8323529,13.5661765 C20.8323844,13.0522592 20.7288531,12.5436055 20.5279412,12.0705882 C20.3423582,11.6182763 20.072919,11.2051363 19.7338235,10.8529412 C19.3819501,10.5128965 18.9746346,10.2353848 18.5294118,10.0323529 C18.0634638,9.82381589 17.5574809,9.7199087 17.0470588,9.72794118 C16.5325024,9.72135277 16.0225132,9.82515588 15.5514706,10.0323529 C15.1023128,10.2354301 14.6906494,10.5128554 14.3338235,10.8529412 C13.9908446,11.2074319 13.713062,11.6196254 13.5132353,12.0705882 C13.3123234,12.5436055 13.2087921,13.0522592 13.2088235,13.5661765 L13.2088235,25.1338235 L10.4823529,25.1338235 L10.4823529,13.5661765 C10.4843673,13.050696 10.3760605,12.5407514 10.1647059,12.0705882 C9.96536797,11.6122091 9.68263263,11.1948379 9.33088235,10.8397059 C8.98101036,10.4749554 8.56276736,10.182635 8.1,9.97941176 C7.62614735,9.78268856 7.11745693,9.68365149 6.60441176,9.68823529 C6.09554284,9.6824843 5.59094264,9.78160219 5.12205882,9.97941176 C4.66666921,10.1711431 4.25306073,10.4498793 3.90441176,10.8 C3.5558355,11.1499217 3.2773143,11.5632112 3.08382353,12.0176471 C2.88707037,12.4822113 2.78795862,12.9822751 2.79264706,13.4867647 L2.79264706,25.0941176 L-1.11110733e-15,25.0941176 L-1.11110733e-15,8.73529412 Z" id="Shape" fill="#020202"></path>
            <path d="M39.4544118,0 L42.2470588,0 L42.2470588,24.0485294 C42.2253091,24.5830499 41.9095611,25.0616488 41.4267183,25.2919704 C40.9438754,25.5222919 40.3732243,25.4665157 39.9441176,25.1470588 C39.7456732,24.9605381 39.6035245,24.7220952 39.5338235,24.4588235 C39.4572546,24.1651305 39.4216238,23.8622679 39.4279412,23.5588235 L39.4279412,22.6323529 C38.8900709,23.5033265 38.1262388,24.2122724 37.2176471,24.6838235 C36.3172623,25.1616192 35.3119139,25.4072699 34.2926471,25.3985294 C33.1848589,25.396746 32.0975556,25.0997935 31.1426471,24.5382353 C30.2344311,24.0086464 29.445796,23.2966215 28.8264706,22.4470588 C28.191748,21.5721501 27.7085502,20.5968064 27.3970588,19.5617647 C27.074999,18.5290549 26.9099213,17.4538191 26.9073529,16.3720588 C26.9094591,15.2372259 27.0789297,14.1089085 27.4102941,13.0235294 C27.7286473,11.9689796 28.2304468,10.9788218 28.8926471,10.0985294 C29.5370327,9.24784376 30.3590403,8.54778238 31.3014706,8.04705882 C32.3327901,7.53807996 33.4741411,7.29253034 34.6235294,7.33235294 C35.5958596,7.32337467 36.5552866,7.55527409 37.4161765,8.00735294 C38.2720348,8.45371865 38.9800506,9.13874699 39.4544118,9.97941176 L39.4544118,0 Z M36.8073529,22.275 C37.3976341,21.9446417 37.9117299,21.4936804 38.3161765,20.9514706 C38.7224849,20.3706932 39.0185808,19.7201793 39.1897059,19.0323529 C39.3757186,18.3013577 39.4690978,17.5498777 39.4676471,16.7955882 C39.4656399,16.0018133 39.3992457,15.2095091 39.2691176,14.4264706 C39.1498999,13.6623477 38.9132827,12.9212447 38.5676471,12.2294118 C38.2322055,11.5775383 37.7412536,11.0183986 37.1382353,10.6014706 C35.7220957,9.7806976 33.9749631,9.7806976 32.5588235,10.6014706 C31.9372398,10.9421436 31.3992411,11.4168484 30.9838235,11.9911765 C30.5693303,12.6172257 30.2690972,13.3117948 30.0970588,14.0426471 C29.9143305,14.7787527 29.8210102,15.5342029 29.8191176,16.2926471 C29.8225366,17.0487572 29.9023538,17.8025866 30.0573529,18.5426471 C30.2100088,19.2854454 30.4874681,19.9969942 30.8779412,20.6470588 C31.2585618,21.2610398 31.7635113,21.7885317 32.3602941,22.1955882 C33.0249479,22.6139667 33.7987465,22.8258402 34.5838235,22.8044118 C35.3541371,22.8235953 36.1160858,22.6410926 36.7941176,22.275 L36.8073529,22.275 Z" id="Shape" fill="#020202"></path>
            <path d="M46.4558824,8.73529412 C46.4899218,7.96992468 47.1064035,7.35920451 47.8720588,7.33235294 C48.1377639,7.32123434 48.4006562,7.39041653 48.6264706,7.53088235 C48.800848,7.66298653 48.9339846,7.8420323 49.0102941,8.04705882 C49.1062559,8.26437124 49.1601486,8.49790645 49.1691176,8.73529412 C49.1691176,8.98676471 49.1691176,9.225 49.1691176,9.47647059 C49.6514905,8.76664478 50.320059,8.20339866 51.1014706,7.84852941 C51.8697966,7.49862307 52.7058081,7.32238281 53.55,7.33235294 C54.5809535,7.33040179 55.5942781,7.59970878 56.4882353,8.11323529 C57.3929558,8.63150516 58.1039184,9.43075719 58.5132353,10.3897059 C59.0064521,9.43746403 59.7772265,8.65745883 60.7235294,8.15294118 C61.6770236,7.62776332 62.7453479,7.34590757 63.8338235,7.33235294 C65.4951747,7.25114841 67.1200816,7.83725852 68.3470588,8.96029412 C69.5169859,10.1514874 70.1318401,11.7798903 70.0411765,13.4470588 L70.0411765,24.0352941 C70.0422042,24.4050796 69.8998864,24.7608743 69.6441176,25.0279412 C69.3915426,25.3002981 69.0361438,25.453984 68.6647059,25.4514706 C68.2978698,25.4502905 67.9479774,25.296913 67.6985294,25.0279412 C67.4342552,24.7654197 67.286436,24.4077926 67.2882353,24.0352941 L67.2882353,13.5661765 C67.2882668,13.0522592 67.1847355,12.5436055 66.9838235,12.0705882 C66.7984861,11.6149873 66.523997,11.2010037 66.1764706,10.8529412 C65.8316861,10.5103702 65.4282358,10.2324377 64.9852941,10.0323529 C64.5193461,9.82381589 64.0133633,9.7199087 63.5029412,9.72794118 C62.9883847,9.72135277 62.4783955,9.82515588 62.0073529,10.0323529 C61.5581952,10.2354301 61.1465318,10.5128554 60.7897059,10.8529412 C60.4467269,11.2074319 60.1689444,11.6196254 59.9691176,12.0705882 C59.7682057,12.5436055 59.6646744,13.0522592 59.6647059,13.5661765 L59.6647059,25.1338235 L56.9382353,25.1338235 L56.9382353,13.5661765 C56.9402497,13.050696 56.8319429,12.5407514 56.6205882,12.0705882 C56.4212503,11.6122091 56.138515,11.1948379 55.7867647,10.8397059 C55.062702,10.120151 54.081059,9.71986933 53.0602941,9.72794118 C52.5514252,9.72219018 52.046825,9.82130807 51.5779412,10.0191176 C51.1225516,10.210849 50.7089431,10.4895852 50.3602941,10.8397059 C50.0117179,11.1896276 49.7331967,11.6029171 49.5397059,12.0573529 C49.3429527,12.5219172 49.243841,13.021981 49.2485294,13.5264706 L49.2485294,25.1338235 L46.4558824,25.1338235 L46.4558824,8.73529412 Z" id="Shape" fill="#020202"></path>
            <path d="M73.8529412,22.6323529 C74.1651449,22.29086 74.6079139,22.0983517 75.0705882,22.1029412 C75.5357111,22.0982833 75.9834887,22.2792998 76.3147059,22.6058824 C76.6676998,22.9210155 76.8617932,23.3771351 76.8441176,23.85 C76.8467461,24.3057247 76.6597614,24.7420222 76.3279412,25.0544118 C76.0042145,25.3841133 75.5590405,25.5660124 75.0970588,25.5573529 C74.6448235,25.5558323 74.211665,25.3749529 73.8926471,25.0544118 C73.5518034,24.7473078 73.3590394,24.3087697 73.3632353,23.85 C73.3591794,23.395358 73.5352376,22.9575917 73.8529412,22.6323529 Z" id="Shape" fill="#020202"></path>
            <path d="M95.3602941,17.325 C94.8267872,17.6322562 94.2143773,17.7749983 93.6,17.7352941 L84.0044118,17.7352941 C84.2127098,18.738177 84.7709951,19.6342483 85.5794118,20.2632353 C86.4067089,20.9057792 87.4307579,21.2424528 88.4779412,21.2161765 C89.0776946,21.2167921 89.6760907,21.1591688 90.2647059,21.0441176 L92.0514706,20.6602941 L92.7397059,24.5382353 C91.2618986,25.1430991 89.6775626,25.444663 88.0808824,25.425 C86.8068116,25.4339501 85.5418586,25.2096677 84.3485294,24.7632353 C83.234103,24.3509114 82.2128186,23.7210443 81.3441176,22.9102941 C80.4816981,22.1055938 79.8004285,21.1265507 79.3455882,20.0382353 C78.8502159,18.8527688 78.6068263,17.5772271 78.6308824,16.2926471 C78.6210773,15.0774678 78.8504322,13.8722301 79.3058824,12.7455882 C79.7344713,11.6795008 80.3685653,10.7081228 81.1720588,9.88676471 C81.9837257,9.07056497 82.9454759,8.41891181 84.0044118,7.96764706 C85.1194861,7.48514674 86.3232989,7.24167899 87.5382353,7.25294118 C88.6456317,7.25123195 89.7411441,7.4811543 90.7544118,7.92794118 C91.7453056,8.36213944 92.6438506,8.98213548 93.4014706,9.75441176 C94.1731401,10.5153912 94.7969308,11.4129317 95.2411765,12.4014706 C95.7057496,13.4192375 95.9450281,14.5253361 95.9426471,15.6441176 C96.0427711,16.2666249 95.824075,16.8978614 95.3602941,17.325 Z M90.7411765,14.8764706 C90.7101873,14.4245628 90.6166485,13.9791399 90.4632353,13.5529412 C90.3069303,13.1234293 90.0835743,12.7213884 89.8014706,12.3617647 C89.5275397,12.0101801 89.1854015,11.7175619 88.7955882,11.5014706 C88.3893698,11.2813396 87.9340779,11.1675166 87.4720588,11.1705882 C86.5194551,11.1443678 85.6109001,11.5716342 85.0235294,12.3220588 C84.7439526,12.6881772 84.520882,13.0941657 84.3617647,13.5264706 C84.2047832,13.9555605 84.089544,14.3987881 84.0176471,14.85 L90.7544118,14.85 L90.7411765,14.8764706 Z" id="Shape" fill="#3597D3"></path>
            <path d="M113.307353,23.9029412 C112.986373,24.6824471 112.297948,25.2506584 111.471725,25.4180284 C110.645502,25.5853984 109.790215,25.3299004 109.191176,24.7367647 C108.701792,24.278831 108.431983,23.6332173 108.45,22.9632353 L108.45,14.4794118 C108.45438,13.6784958 108.134522,12.9098821 107.563235,12.3485294 C107.005418,11.7720323 106.234474,11.4512045 105.432353,11.4617647 C104.639528,11.4455099 103.876198,11.7623638 103.327941,12.3352941 C102.764525,12.8944106 102.453786,13.6593058 102.467647,14.4529412 L102.467647,25.1338235 L97.4117647,25.1338235 L97.4117647,9.75441176 C97.409907,9.41776463 97.4774909,9.08435101 97.6102941,8.775 C97.737768,8.47181614 97.911937,8.19046624 98.1264706,7.94117647 C98.3535713,7.703841 98.6228631,7.51084858 98.9205882,7.37205882 C99.2269901,7.22874648 99.5617618,7.15636342 99.9,7.16029412 C100.50173,7.10946756 101.083924,7.38790855 101.422059,7.88823529 C101.732117,8.37247487 101.931003,8.91941202 102.004412,9.48970588 C102.50968,8.74017785 103.216148,8.14839587 104.042647,7.78235294 C104.875251,7.41037667 105.777804,7.22084061 106.689706,7.22647059 C107.592939,7.21800051 108.490087,7.37500156 109.336765,7.68970588 C110.14538,7.98147241 110.887769,8.43140509 111.520588,9.01323529 C112.165766,9.55692818 112.6851,10.2343199 113.042647,10.9985294 C113.40514,11.8332605 113.585617,12.7356471 113.572059,13.6455882 L113.572059,22.9102941 C113.549495,23.255288 113.459566,23.5925204 113.307353,23.9029412 Z" id="Shape" fill="#3597D3"></path>
            <path d="M131.730882,17.325 C131.197375,17.6322562 130.584966,17.7749983 129.970588,17.7352941 L120.375,17.7352941 C120.583298,18.738177 121.141583,19.6342483 121.95,20.2632353 C122.777297,20.9057792 123.801346,21.2424528 124.848529,21.2161765 C125.448283,21.2167921 126.046679,21.1591688 126.635294,21.0441176 L128.422059,20.6602941 L129.110294,24.5382353 C127.632487,25.1430991 126.048151,25.444663 124.451471,25.425 C123.1774,25.4339501 121.912447,25.2096677 120.719118,24.7632353 C119.603117,24.3541475 118.581222,23.7239037 117.714706,22.9102941 C116.847538,22.1039924 116.157882,21.1258537 115.689706,20.0382353 C115.199432,18.851241 114.956247,17.5767702 114.975,16.2926471 C114.977791,15.0748121 115.220657,13.8694757 115.689706,12.7455882 C116.118295,11.6795008 116.752389,10.7081228 117.555882,9.88676471 C118.367549,9.07056497 119.329299,8.41891181 120.388235,7.96764706 C121.50331,7.48514674 122.707122,7.24167899 123.922059,7.25294118 C125.029455,7.25123195 126.124968,7.4811543 127.138235,7.92794118 C128.127244,8.36551396 129.025188,8.98509526 129.785294,9.75441176 C130.556964,10.5153912 131.180754,11.4129317 131.625,12.4014706 C132.085416,13.420124 132.320189,14.5262674 132.313235,15.6441176 C132.413359,16.2666249 132.194663,16.8978614 131.730882,17.325 Z M127.111765,14.8764706 C127.080776,14.4245628 126.987237,13.9791399 126.833824,13.5529412 C126.677519,13.1234293 126.454163,12.7213884 126.172059,12.3617647 C125.898128,12.0101801 125.55599,11.7175619 125.166176,11.5014706 C124.759958,11.2813396 124.304666,11.1675166 123.842647,11.1705882 C122.890043,11.1443678 121.981488,11.5716342 121.394118,12.3220588 C121.10963,12.6849567 120.886119,13.0917478 120.732353,13.5264706 C120.575371,13.9555605 120.460132,14.3987881 120.388235,14.85 L127.125,14.85 L127.111765,14.8764706 Z" id="Shape" fill="#3597D3"></path>
            <path d="M144.198529,10.8264706 C143.994246,11.1255563 143.733475,11.381831 143.430882,11.5808824 C143.107258,11.7983266 142.761142,11.9802594 142.398529,12.1235294 C141.999197,12.27957 141.610178,12.4608172 141.233824,12.6661765 C140.831873,12.8680055 140.458103,13.1216352 140.122059,13.4205882 C139.416646,14.0214485 138.966968,14.8687377 138.864706,15.7897059 C138.864706,16.2264706 138.798529,16.7029412 138.798529,17.2058824 L138.798529,25.1470588 L133.742647,25.1470588 L133.742647,9.78088235 C133.729713,9.51717783 133.814543,9.25797425 133.980882,9.05294118 C134.149121,8.84613854 134.345086,8.66353475 134.563235,8.51029412 C134.808689,8.30299418 135.142075,8.23333129 135.45,8.325 C135.762438,8.43724659 136.037424,8.63432041 136.244118,8.89411765 C136.495035,9.20302319 136.708299,9.54069162 136.879412,9.9 C137.058304,10.2706954 137.217352,10.6506439 137.355882,11.0382353 C137.471053,10.8815428 137.59477,10.7313152 137.726471,10.5882353 C138.025513,10.2441651 138.343662,9.91717866 138.679412,9.60882353 C139.082651,9.20702165 139.526163,8.847777 140.002941,8.53676471 C140.427057,8.27593584 140.869373,8.04593136 141.326471,7.84852941 C141.739196,7.65288496 142.193775,7.561969 142.65,7.58382353 C143.159691,7.64626877 143.62969,7.89066819 143.973529,8.27205882 C144.32751,8.65818923 144.52149,9.16443139 144.516176,9.68823529 C144.519721,10.0900063 144.409604,10.4845933 144.198529,10.8264706 Z" id="Shape" fill="#3597D3"></path>
            <path d="M161.258824,27.1852941 C160.884666,28.3276259 160.281159,29.3815118 159.485294,30.2823529 C158.682901,31.1572795 157.703991,31.8519899 156.613235,32.3205882 C155.354177,32.8348306 154.002245,33.0826849 152.642647,33.0485294 C152.022583,33.050113 151.40325,33.0058749 150.789706,32.9161765 C150.171907,32.8354617 149.561266,32.7071387 148.963235,32.5323529 L148.830882,32.4264706 C148.797951,32.3877453 148.757405,32.3562092 148.711765,32.3338235 C148.720257,32.0769524 148.742346,31.8207112 148.777941,31.5661765 C148.777941,31.1294118 148.870588,30.6794118 148.923529,30.2426471 C148.976471,29.8058824 149.029412,29.3161765 149.082353,28.9191176 C149.135294,28.5220588 149.161765,28.2308824 149.161765,28.125 C149.757353,28.2838235 150.352941,28.4161765 150.961765,28.5352941 C151.558617,28.6565072 152.165967,28.7185722 152.775,28.7205882 C153.944301,28.7991931 155.079098,28.3058031 155.819118,27.3970588 C156.500806,26.4909304 156.855375,25.3805691 156.825,24.2470588 C156.842647,24.0798762 156.842647,23.9113003 156.825,23.7441176 C156.308879,24.3183284 155.671401,24.7704401 154.958824,25.0676471 C154.229857,25.3744391 153.446776,25.5319553 152.655882,25.5308824 C150.387872,25.5743544 148.218698,24.603807 146.739706,22.8838235 C146.028973,22.0391708 145.481438,21.0697641 145.125,20.025 C144.753061,18.929673 144.565222,17.7802769 144.569118,16.6235294 C144.567483,15.4453342 144.755169,14.2745297 145.125,13.1558824 C145.483368,12.0676778 146.029889,11.0507903 146.739706,10.1514706 C147.440325,9.27600466 148.314539,8.55500333 149.307353,8.03382353 C150.368723,7.48083472 151.551966,7.20322772 152.748529,7.22647059 C153.66292,7.20996566 154.568782,7.40472604 155.395588,7.79558824 C156.210858,8.18061674 156.90621,8.77990001 157.407353,9.52941176 C157.454708,8.93861711 157.640614,8.36729526 157.95,7.86176471 C158.294483,7.37147229 158.875527,7.10368675 159.472059,7.16029412 C160.160919,7.10595619 160.83589,7.37496641 161.298529,7.88823529 C161.723889,8.41434944 161.94062,9.07867481 161.907353,9.75441176 L161.907353,23.3205882 C161.906014,24.6357924 161.686873,25.9416955 161.258824,27.1852941 Z M156.983824,15.1676471 C156.943829,14.7527596 156.854979,14.3440469 156.719118,13.95 C156.573232,13.5631278 156.367815,13.2014155 156.110294,12.8779412 C155.837253,12.5463224 155.505189,12.2681067 155.130882,12.0573529 C154.633391,11.7944852 154.078842,11.6581206 153.516176,11.6602941 C152.931362,11.6487617 152.353132,11.7853513 151.835294,12.0573529 C151.369269,12.3127458 150.963155,12.6647116 150.644118,13.0897059 C150.322617,13.5343364 150.080788,14.03143 149.929412,14.5588235 C149.780557,15.106732 149.704899,15.6719372 149.704412,16.2397059 C149.70221,16.8242291 149.773354,17.4067192 149.916176,17.9735294 C150.0485,18.5171132 150.277109,19.0326043 150.591176,19.4955882 C151.231075,20.4647561 152.329039,21.0312855 153.489706,20.9911765 C154.047251,21.0072337 154.597934,20.864974 155.077941,20.5808824 C155.521049,20.3185345 155.900692,19.9614889 156.189706,19.5352941 C156.500874,19.0947998 156.729575,18.6015236 156.864706,18.0794118 C157.019525,17.555029 157.099724,17.0114561 157.102941,16.4647059 C157.095393,16.0387753 157.055573,15.6140294 156.983824,15.1941176 L156.983824,15.1676471 Z" id="Shape" fill="#3597D3"></path>
            <path d="M179.311765,10.3764706 C179.234073,10.7259101 179.123278,11.0671565 178.980882,11.3955882 C178.901471,11.7264706 178.729412,12.2426471 178.491176,12.9573529 C178.252941,13.6720588 177.961765,14.5058824 177.617647,15.4720588 C177.273529,16.4382353 176.902941,17.4838235 176.492647,18.6088235 C176.082353,19.7338235 175.645588,20.8588235 175.169118,21.9970588 C174.692647,23.1352941 174.295588,24.2205882 173.845588,25.2794118 C173.395588,26.3382353 173.025,27.2911765 172.680882,28.1382353 C172.336765,28.9852941 172.019118,29.6735294 171.767647,30.2029412 C171.661265,30.5467284 171.495528,30.8692419 171.277941,31.1558824 C171.072896,31.6546578 170.766414,32.1053672 170.377941,32.4794118 C169.967572,32.8442426 169.430859,33.0342295 168.882353,33.0088235 C168.246891,33.0120402 167.631479,32.7865456 167.148529,32.3735294 C166.653938,31.9793671 166.37034,31.3779434 166.380882,30.7455882 C166.40641,30.2377464 166.527654,29.7392992 166.738235,29.2764706 C166.808824,29.0558824 166.954412,28.6720588 167.175,28.125 C167.386765,27.5691176 167.625,27.0132353 167.889706,26.4308824 L168.617647,24.8294118 C168.829412,24.3529412 168.961765,24.075 169.014706,23.9823529 L163.323529,9.42352941 L167.889706,7.54411765 L171.622059,17.9205882 L174.480882,9.27794118 C174.663087,8.73801175 174.956115,8.24211814 175.341176,7.82205882 C175.739219,7.40426846 176.300279,7.18177897 176.876471,7.21323529 C177.534962,7.20155457 178.171756,7.44866867 178.65,7.90147059 C179.153922,8.33997967 179.435479,8.98076508 179.417647,9.64852941 C179.406582,9.89408752 179.371113,10.1379355 179.311765,10.3764706 Z" id="Shape" fill="#3597D3"></path>
        </g>
    </g>
</svg>