<?xml version="1.0" encoding="UTF-8" standalone="no"?>
<svg width="80px" height="80px" viewBox="0 0 80 80" version="1.1" xmlns="http://www.w3.org/2000/svg" xmlns:xlink="http://www.w3.org/1999/xlink">
    <!-- Generator: Sketch 3.8.3 (29802) - http://www.bohemiancoding.com/sketch -->
    <title>Artboard 1 Copy 2</title>
    <desc>Created with Sketch.</desc>
    <defs>
        <rect id="path-1" x="0" y="0" width="60" height="60"></rect>
        <rect id="path-3" x="0" y="0" width="60" height="60"></rect>
        <rect id="path-5" x="0" y="0" width="60" height="60"></rect>
        <rect id="path-7" x="0" y="0" width="60" height="60"></rect>
        <rect id="path-9" x="0" y="0" width="60" height="60"></rect>
        <rect id="path-11" x="0" y="0" width="60" height="60"></rect>
        <rect id="path-13" x="0" y="0" width="60" height="60"></rect>
        <rect id="path-15" x="0" y="0" width="60" height="60"></rect>
    </defs>
    <g id="Page-1" stroke="none" stroke-width="1" fill="none" fill-rule="evenodd">
        <g id="Artboard-1-Copy-2">
            <g id="binary">
                <circle id="Oval" fill="#72C126" cx="40" cy="40" r="40"></circle>
                <g id="Clipped" transform="translate(10.000000, 10.000000)">
                    <mask id="mask-2" fill="white">
                        <use xlink:href="#path-1"></use>
                    </mask>
                    <g id="SVGID_1_"></g>
                    <g id="Group" mask="url(#mask-2)">
                        <g id="Clipped">
                            <mask id="mask-4" fill="white">
                                <use xlink:href="#path-3"></use>
                            </mask>
                            <g id="SVGID_3_"></g>
                            <path d="M35.3,19 C34.8,19 34.4,19.3 34.2,19.8 C34,20.4 33.9,21.4 33.9,22.6 C33.9,23.8 34,24.8 34.2,25.4 C34.4,26 34.7,26.2 35.2,26.2 C35.7,26.2 36.1,25.9 36.2,25.4 C36.4,24.8 36.5,23.8 36.5,22.6 C36.5,21.3 36.4,20.4 36.2,19.8 C36.1,19.3 35.8,19 35.3,19" id="Shape" fill="#FFFFFF" mask="url(#mask-4)"></path>
                        </g>
                        <g id="Clipped">
                            <mask id="mask-6" fill="white">
                                <use xlink:href="#path-5"></use>
                            </mask>
                            <g id="SVGID_3_"></g>
                            <path d="M35.3,33.7 C34.8,33.7 34.4,34 34.2,34.5 C34,35.1 33.9,36.1 33.9,37.3 C33.9,38.5 34,39.5 34.2,40.1 C34.4,40.7 34.7,40.9 35.2,40.9 C35.7,40.9 36.1,40.6 36.2,40.1 C36.4,39.5 36.5,38.5 36.5,37.3 C36.5,36 36.4,35.1 36.2,34.5 C36.1,34 35.8,33.7 35.3,33.7" id="Shape" fill="#FFFFFF" mask="url(#mask-6)"></path>
                        </g>
                        <g id="Clipped">
                            <mask id="mask-8" fill="white">
                                <use xlink:href="#path-7"></use>
                            </mask>
                            <g id="SVGID_3_"></g>
                            <path d="M24.7,33.7 C24.2,33.7 23.8,34 23.6,34.5 C23.4,35.1 23.3,36.1 23.3,37.3 C23.3,38.5 23.4,39.5 23.6,40.1 C23.8,40.7 24.1,40.9 24.6,40.9 C25.1,40.9 25.5,40.6 25.6,40.1 C25.8,39.5 25.9,38.5 25.9,37.3 C25.9,36 25.8,35.1 25.6,34.5 C25.6,34 25.3,33.7 24.7,33.7" id="Shape" fill="#FFFFFF" mask="url(#mask-8)"></path>
                        </g>
                        <g id="Clipped">
                            <mask id="mask-10" fill="white">
                                <use xlink:href="#path-9"></use>
                            </mask>
                            <g id="SVGID_3_"></g>
                            <path d="M14.2,19 C13.7,19 13.3,19.3 13.1,19.8 C12.9,20.4 12.8,21.4 12.8,22.6 C12.8,23.8 12.9,24.8 13.1,25.4 C13.3,26 13.6,26.2 14.1,26.2 C14.6,26.2 15,25.9 15.1,25.4 C15.3,24.8 15.4,23.8 15.4,22.6 C15.4,21.3 15.3,20.4 15.1,19.8 C15.1,19.3 14.7,19 14.2,19" id="Shape" fill="#FFFFFF" mask="url(#mask-10)"></path>
                        </g>
                        <g id="Clipped">
                            <mask id="mask-12" fill="white">
                                <use xlink:href="#path-11"></use>
                            </mask>
                            <g id="SVGID_3_"></g>
                            <path d="M45.8,19 C45.3,19 44.9,19.3 44.7,19.8 C44.5,20.4 44.4,21.4 44.4,22.6 C44.4,23.8 44.5,24.8 44.7,25.4 C44.9,26 45.2,26.2 45.7,26.2 C46.2,26.2 46.6,25.9 46.7,25.4 C46.9,24.8 47,23.8 47,22.6 C47,21.3 46.9,20.4 46.7,19.8 C46.7,19.3 46.3,19 45.8,19" id="Shape" fill="#FFFFFF" mask="url(#mask-12)"></path>
                        </g>
                        <g id="Clipped">
                            <mask id="mask-14" fill="white">
                                <use xlink:href="#path-13"></use>
                            </mask>
                            <g id="SVGID_3_"></g>
                            <path d="M49.6,11.9 L10.4,11.9 C8.2,11.9 6.4,13.7 6.4,15.9 L6.4,44 C6.4,46.2 8.2,48 10.4,48 L49.6,48 C51.8,48 53.6,46.2 53.6,44 L53.6,16 C53.6,13.7 51.8,11.9 49.6,11.9 L49.6,11.9 Z M23.3,17.1 L26.2,17.1 L26.2,28.2 L23.3,28.2 L23.3,17.1 L23.3,17.1 Z M15.6,42.9 L12.7,42.9 L12.7,31.8 L15.6,31.8 L15.6,42.9 L15.6,42.9 Z M17.3,26.9 C16.7,27.9 15.7,28.5 14.2,28.5 C12.7,28.5 11.7,28 11.1,26.9 C10.5,25.9 10.2,24.5 10.2,22.6 C10.2,20.8 10.5,19.3 11.1,18.3 C11.7,17.3 12.7,16.7 14.2,16.7 C15.7,16.7 16.7,17.2 17.3,18.3 C17.9,19.3 18.2,20.7 18.2,22.6 C18.2,24.5 17.9,25.9 17.3,26.9 L17.3,26.9 Z M27.8,41.6 C27.2,42.6 26.2,43.2 24.7,43.2 C23.2,43.2 22.2,42.7 21.6,41.6 C21,40.6 20.7,39.2 20.7,37.3 C20.7,35.5 21,34 21.6,33 C22.2,32 23.2,31.4 24.7,31.4 C26.2,31.4 27.2,31.9 27.8,33 C28.4,34 28.7,35.4 28.7,37.3 C28.7,39.2 28.4,40.6 27.8,41.6 L27.8,41.6 Z M38.4,41.6 C37.8,42.6 36.8,43.2 35.3,43.2 C33.8,43.2 32.8,42.7 32.2,41.6 C31.6,40.6 31.3,39.2 31.3,37.3 C31.3,35.5 31.6,34 32.2,33 C32.8,32 33.8,31.4 35.3,31.4 C36.8,31.4 37.8,31.9 38.4,33 C39,34 39.3,35.4 39.3,37.3 C39.3,39.2 39,40.6 38.4,41.6 L38.4,41.6 Z M38.4,26.9 C37.8,27.9 36.8,28.5 35.3,28.5 C33.8,28.5 32.8,28 32.2,26.9 C31.6,25.9 31.3,24.5 31.3,22.6 C31.3,20.8 31.6,19.3 32.2,18.3 C32.8,17.3 33.8,16.7 35.3,16.7 C36.8,16.7 37.8,17.2 38.4,18.3 C39,19.3 39.3,20.7 39.3,22.6 C39.2,24.5 39,25.9 38.4,26.9 L38.4,26.9 Z M48.9,41.6 C48.3,42.6 47.3,43.2 45.8,43.2 C44.3,43.2 43.3,42.7 42.7,41.6 C42.1,40.6 41.8,39.2 41.8,37.3 C41.8,35.5 42.1,34 42.7,33 C43.3,32 44.3,31.4 45.8,31.4 C47.3,31.4 48.3,31.9 48.9,33 C49.5,34 49.8,35.4 49.8,37.3 C49.8,39.2 49.5,40.6 48.9,41.6 L48.9,41.6 Z M48.9,26.9 C48.3,27.9 47.3,28.5 45.8,28.5 C44.3,28.5 43.3,28 42.7,26.9 C42.1,25.9 41.8,24.5 41.8,22.6 C41.8,20.8 42.1,19.3 42.7,18.3 C43.3,17.3 44.3,16.7 45.8,16.7 C47.3,16.7 48.3,17.2 48.9,18.3 C49.5,19.3 49.8,20.7 49.8,22.6 C49.8,24.5 49.5,25.9 48.9,26.9 L48.9,26.9 Z" id="Shape" fill="#FFFFFF" mask="url(#mask-14)"></path>
                        </g>
                        <g id="Clipped">
                            <mask id="mask-16" fill="white">
                                <use xlink:href="#path-15"></use>
                            </mask>
                            <g id="SVGID_3_"></g>
                            <path d="M45.8,33.7 C45.3,33.7 44.9,34 44.7,34.5 C44.5,35.1 44.4,36.1 44.4,37.3 C44.4,38.5 44.5,39.5 44.7,40.1 C44.9,40.7 45.2,40.9 45.7,40.9 C46.2,40.9 46.6,40.6 46.7,40.1 C46.9,39.5 47,38.5 47,37.3 C47,36 46.9,35.1 46.7,34.5 C46.7,34 46.3,33.7 45.8,33.7" id="Shape" fill="#FFFFFF" mask="url(#mask-16)"></path>
                        </g>
                    </g>
                </g>
            </g>
            <g id="Group-2">
                <circle id="Oval" fill="#72C126" cx="40" cy="40" r="40"></circle>
                <g id="Group-3" transform="translate(12.000000, 18.000000)" fill="#FFFFFF">
                    <path d="M26.5563711,17.5989591 L30.2498917,16.2953325 L30.2498917,13.0321922 L26.5563711,11.7244917 C26.2118106,10.7386241 25.8840579,9.76905184 25.2117448,8.79947956 L26.8841238,5.53633922 L24.5394316,3.24277117 L21.1736636,4.88452592 C20.1735978,4.23271262 19.1567241,3.8986583 18.1524562,3.57682549 L16.8078298,0 L13.4420619,0 L12.0974355,3.57682549 C11.0973696,3.8986583 10.076294,4.23271262 9.07622811,4.88452592 L5.71046019,3.24277117 L3.36576792,5.53633922 L5.03814699,9.11723854 C4.3658338,10.0868108 4.03808112,11.0726784 3.69352061,12.0463246 L0,13.0321922 L0,16.2953325 L3.69352061,17.5989591 C4.03808112,18.5685314 4.3658338,19.5381037 5.03814699,20.5280451 L3.36576792,23.7871116 L5.71046019,26.0643844 L9.40398079,24.4429988 C10.4208545,25.0948121 11.4251223,25.4125711 12.441996,25.7466254 L13.4420619,29.3275247 L16.8078298,29.3275247 L18.1524562,25.7466254 C19.1567241,25.4125711 20.1735978,25.0948121 21.1736636,24.4429988 L24.5394316,26.0643844 L26.8841238,23.7871116 L25.2117448,20.1939908 C25.8840579,19.5381037 26.2118106,18.5685314 26.5563711,17.5989591 L26.5563711,17.5989591 Z M15.1354508,21.1798584 C11.4251223,21.1798584 8.40391492,18.2344771 8.40391492,14.6535778 C8.40391492,11.0726784 11.4251223,8.14766626 15.1354508,8.14766626 C18.8247694,8.14766626 21.8459768,11.0726784 21.8459768,14.6535778 C21.8459768,18.2344771 18.8247694,21.1798584 15.1354508,21.1798584 L15.1354508,21.1798584 Z" id="Fill-3"></path>
                    <path d="M53.2011786,32.5022467 L56.8946992,31.1986201 L56.8946992,27.9354798 L53.2011786,26.6277793 C52.8566181,25.6419117 52.5288654,24.6723394 51.8565522,23.7027671 L53.5289313,20.4396268 L51.1842391,18.1460588 L47.8184711,19.7878135 C46.8184053,19.1360002 45.8015315,18.8019459 44.7972637,18.4801131 L43.4526373,14.9032876 L40.0868694,14.9032876 L38.742243,18.4801131 C37.7421771,18.8019459 36.7211015,19.1360002 35.7210356,19.7878135 L32.3552677,18.1460588 L30.0105754,20.4396268 L31.6829545,24.0205261 C31.0106413,24.9900984 30.6828886,25.975966 30.3383281,26.9496122 L26.6448075,27.9354798 L26.6448075,31.1986201 L30.3383281,32.5022467 C30.6828886,33.471819 31.0106413,34.4413913 31.6829545,35.4313327 L30.0105754,38.6903992 L32.3552677,40.9676719 L36.0487883,39.3462864 C37.065662,39.9980997 38.0699298,40.3158586 39.0868035,40.649913 L40.0868694,44.2308123 L43.4526373,44.2308123 L44.7972637,40.649913 C45.8015315,40.3158586 46.8184053,39.9980997 47.8184711,39.3462864 L51.1842391,40.9676719 L53.5289313,38.6903992 L51.8565522,35.0972784 C52.5288654,34.4413913 52.8566181,33.471819 53.2011786,32.5022467 L53.2011786,32.5022467 Z M41.7802583,36.083146 C38.0699298,36.083146 35.0487224,33.1377647 35.0487224,29.5568654 C35.0487224,25.975966 38.0699298,23.0509538 41.7802583,23.0509538 C45.4695769,23.0509538 48.4907843,25.975966 48.4907843,29.5568654 C48.4907843,33.1377647 45.4695769,36.083146 41.7802583,36.083146 L41.7802583,36.083146 Z" id="Fill-3-Copy"></path>
                </g>
            </g>
        </g>
    </g>
</svg>