<svg id="Layer_1" data-name="Layer 1" xmlns="http://www.w3.org/2000/svg" viewBox="0 0 72.71 173.79"><defs><style>.cls-1{fill:#303144;}.cls-2{fill:#fff;}.cls-3{fill:#73bf44;}.cls-4{fill:#f15a45;}.cls-5{fill:#3597d3;}</style></defs><title>rocket</title><path class="cls-1" d="M67.84,97.53A127.07,127.07,0,0,0,69,82.35c-.66-51-23.49-67.3-24.48-68a1.17,1.17,0,0,0-.63-.17h-.12a1.2,1.2,0,0,0-.64.17c-1,.69-23.82,17-24.47,68a127.07,127.07,0,0,0,1.14,15.18L7.45,114.8l2.21,21.45,20.76-9.15a16.67,16.67,0,0,0,9.18,5.51l4.21-.24,4.2.24a16.61,16.61,0,0,0,9.18-5.51L78,136.25l2.2-21.45ZM52.2,84.67a11.27,11.27,0,0,1-8.13,3.4h-.52a11.34,11.34,0,1,1,0-22.68h.54A11.34,11.34,0,0,1,52.2,84.67Z" transform="translate(-7.45 -14.19)"/><path class="cls-2" d="M8.86,10.2" transform="translate(-7.45 -14.19)"/><path class="cls-2" d="M-29.49,118.43" transform="translate(-7.45 -14.19)"/><path class="cls-2" d="M78.76,10.2" transform="translate(-7.45 -14.19)"/><path class="cls-3" d="M30.42,134.49l-5.06,2.23v31L34.59,176V138A19.18,19.18,0,0,1,30.42,134.49Z" transform="translate(-7.45 -14.19)"/><path class="cls-4" d="M62.26,136.72l-5.07-2.23A19.13,19.13,0,0,1,53,138v38l9.23-8.28Z" transform="translate(-7.45 -14.19)"/><polygon class="cls-5" points="40.97 169.65 40.97 125.69 31.74 125.69 31.74 169.65 36.35 173.79 40.97 169.65"/></svg>