<?xml version="1.0" encoding="UTF-8" standalone="no"?>
<svg width="80px" height="80px" viewBox="0 0 80 80" version="1.1" xmlns="http://www.w3.org/2000/svg" xmlns:xlink="http://www.w3.org/1999/xlink">
    <!-- Generator: Sketch 3.8.3 (29802) - http://www.bohemiancoding.com/sketch -->
    <title>Artboard 1 Copy 3</title>
    <desc>Created with Sketch.</desc>
    <defs>
        <rect id="path-1" x="0" y="0" width="60" height="60"></rect>
        <rect id="path-3" x="0" y="0" width="60" height="60"></rect>
        <rect id="path-5" x="0" y="0" width="60" height="60"></rect>
        <rect id="path-7" x="0" y="0" width="60" height="60"></rect>
        <rect id="path-9" x="0" y="0" width="60" height="60"></rect>
        <rect id="path-11" x="0" y="0" width="60" height="60"></rect>
        <rect id="path-13" x="0" y="0" width="60" height="60"></rect>
        <rect id="path-15" x="0" y="0" width="60" height="60"></rect>
        <path d="M25.26,0.001 C20.117,0.001 15.397,2.033 11.971,5.722 C8.639,9.301 6.805,14.114 6.805,19.274 L6.805,19.987 C2.96,20.892 0.119,24.357 0.119,28.418 L0.119,31.542 C0.119,36.315 4.002,40.197 8.774,40.197 L12.806,40.197 C14.356,40.197 15.617,38.936 15.617,37.387 L15.617,22.562 C15.617,21.012 14.356,19.751 12.806,19.751 L12.426,19.751 L12.426,19.274 C12.426,11.491 17.94,5.622 25.249,5.622 L26.898,5.622 C34.208,5.622 39.721,11.491 39.721,19.274 L39.721,19.751 L39.342,19.751 C37.792,19.751 36.531,21.012 36.531,22.562 L36.531,37.376 C36.531,38.926 37.792,40.186 39.342,40.186 L39.448,40.186 C38.674,43.742 36.424,45.168 34.594,45.733 C33.506,43.931 31.544,42.791 29.367,42.791 L26.089,42.791 C22.727,42.791 19.991,45.526 19.991,48.889 C19.991,52.259 22.727,55 26.089,55 L29.379,55 C31.779,55 33.937,53.577 34.921,51.441 C36.087,51.199 37.556,50.743 39.019,49.889 C41.483,48.448 44.467,45.577 45.189,39.997 C49.113,39.155 52.028,35.659 52.028,31.531 L52.028,28.411 C52.04,24.343 49.208,20.88 45.365,19.984 L45.365,19.274 C45.365,14.113 43.531,9.301 40.201,5.723 C36.771,2.033 32.051,0.001 26.909,0.001 L25.26,0.001 L25.26,0.001 Z M42.164,25.373 L43.384,25.373 C45.057,25.373 46.418,26.734 46.418,28.407 L46.418,31.531 C46.418,33.204 45.057,34.565 43.384,34.565 L42.164,34.565 L42.164,25.373 L42.164,25.373 Z M5.763,31.531 L5.763,28.407 C5.763,26.734 7.124,25.373 8.797,25.373 L10.016,25.373 L10.016,34.565 L8.797,34.565 C7.124,34.565 5.763,33.204 5.763,31.531 L5.763,31.531 Z" id="path-17"></path>
    </defs>
    <g id="Page-1" stroke="none" stroke-width="1" fill="none" fill-rule="evenodd">
        <g id="Artboard-1-Copy-3">
            <g id="binary">
                <circle id="Oval" fill="#72C126" cx="40" cy="40" r="40"></circle>
                <g id="Clipped" transform="translate(10.000000, 10.000000)">
                    <mask id="mask-2" fill="white">
                        <use xlink:href="#path-1"></use>
                    </mask>
                    <g id="SVGID_1_"></g>
                    <g id="Group" mask="url(#mask-2)">
                        <g id="Clipped">
                            <mask id="mask-4" fill="white">
                                <use xlink:href="#path-3"></use>
                            </mask>
                            <g id="SVGID_3_"></g>
                            <path d="M35.3,19 C34.8,19 34.4,19.3 34.2,19.8 C34,20.4 33.9,21.4 33.9,22.6 C33.9,23.8 34,24.8 34.2,25.4 C34.4,26 34.7,26.2 35.2,26.2 C35.7,26.2 36.1,25.9 36.2,25.4 C36.4,24.8 36.5,23.8 36.5,22.6 C36.5,21.3 36.4,20.4 36.2,19.8 C36.1,19.3 35.8,19 35.3,19" id="Shape" fill="#FFFFFF" mask="url(#mask-4)"></path>
                        </g>
                        <g id="Clipped">
                            <mask id="mask-6" fill="white">
                                <use xlink:href="#path-5"></use>
                            </mask>
                            <g id="SVGID_3_"></g>
                            <path d="M35.3,33.7 C34.8,33.7 34.4,34 34.2,34.5 C34,35.1 33.9,36.1 33.9,37.3 C33.9,38.5 34,39.5 34.2,40.1 C34.4,40.7 34.7,40.9 35.2,40.9 C35.7,40.9 36.1,40.6 36.2,40.1 C36.4,39.5 36.5,38.5 36.5,37.3 C36.5,36 36.4,35.1 36.2,34.5 C36.1,34 35.8,33.7 35.3,33.7" id="Shape" fill="#FFFFFF" mask="url(#mask-6)"></path>
                        </g>
                        <g id="Clipped">
                            <mask id="mask-8" fill="white">
                                <use xlink:href="#path-7"></use>
                            </mask>
                            <g id="SVGID_3_"></g>
                            <path d="M24.7,33.7 C24.2,33.7 23.8,34 23.6,34.5 C23.4,35.1 23.3,36.1 23.3,37.3 C23.3,38.5 23.4,39.5 23.6,40.1 C23.8,40.7 24.1,40.9 24.6,40.9 C25.1,40.9 25.5,40.6 25.6,40.1 C25.8,39.5 25.9,38.5 25.9,37.3 C25.9,36 25.8,35.1 25.6,34.5 C25.6,34 25.3,33.7 24.7,33.7" id="Shape" fill="#FFFFFF" mask="url(#mask-8)"></path>
                        </g>
                        <g id="Clipped">
                            <mask id="mask-10" fill="white">
                                <use xlink:href="#path-9"></use>
                            </mask>
                            <g id="SVGID_3_"></g>
                            <path d="M14.2,19 C13.7,19 13.3,19.3 13.1,19.8 C12.9,20.4 12.8,21.4 12.8,22.6 C12.8,23.8 12.9,24.8 13.1,25.4 C13.3,26 13.6,26.2 14.1,26.2 C14.6,26.2 15,25.9 15.1,25.4 C15.3,24.8 15.4,23.8 15.4,22.6 C15.4,21.3 15.3,20.4 15.1,19.8 C15.1,19.3 14.7,19 14.2,19" id="Shape" fill="#FFFFFF" mask="url(#mask-10)"></path>
                        </g>
                        <g id="Clipped">
                            <mask id="mask-12" fill="white">
                                <use xlink:href="#path-11"></use>
                            </mask>
                            <g id="SVGID_3_"></g>
                            <path d="M45.8,19 C45.3,19 44.9,19.3 44.7,19.8 C44.5,20.4 44.4,21.4 44.4,22.6 C44.4,23.8 44.5,24.8 44.7,25.4 C44.9,26 45.2,26.2 45.7,26.2 C46.2,26.2 46.6,25.9 46.7,25.4 C46.9,24.8 47,23.8 47,22.6 C47,21.3 46.9,20.4 46.7,19.8 C46.7,19.3 46.3,19 45.8,19" id="Shape" fill="#FFFFFF" mask="url(#mask-12)"></path>
                        </g>
                        <g id="Clipped">
                            <mask id="mask-14" fill="white">
                                <use xlink:href="#path-13"></use>
                            </mask>
                            <g id="SVGID_3_"></g>
                            <path d="M49.6,11.9 L10.4,11.9 C8.2,11.9 6.4,13.7 6.4,15.9 L6.4,44 C6.4,46.2 8.2,48 10.4,48 L49.6,48 C51.8,48 53.6,46.2 53.6,44 L53.6,16 C53.6,13.7 51.8,11.9 49.6,11.9 L49.6,11.9 Z M23.3,17.1 L26.2,17.1 L26.2,28.2 L23.3,28.2 L23.3,17.1 L23.3,17.1 Z M15.6,42.9 L12.7,42.9 L12.7,31.8 L15.6,31.8 L15.6,42.9 L15.6,42.9 Z M17.3,26.9 C16.7,27.9 15.7,28.5 14.2,28.5 C12.7,28.5 11.7,28 11.1,26.9 C10.5,25.9 10.2,24.5 10.2,22.6 C10.2,20.8 10.5,19.3 11.1,18.3 C11.7,17.3 12.7,16.7 14.2,16.7 C15.7,16.7 16.7,17.2 17.3,18.3 C17.9,19.3 18.2,20.7 18.2,22.6 C18.2,24.5 17.9,25.9 17.3,26.9 L17.3,26.9 Z M27.8,41.6 C27.2,42.6 26.2,43.2 24.7,43.2 C23.2,43.2 22.2,42.7 21.6,41.6 C21,40.6 20.7,39.2 20.7,37.3 C20.7,35.5 21,34 21.6,33 C22.2,32 23.2,31.4 24.7,31.4 C26.2,31.4 27.2,31.9 27.8,33 C28.4,34 28.7,35.4 28.7,37.3 C28.7,39.2 28.4,40.6 27.8,41.6 L27.8,41.6 Z M38.4,41.6 C37.8,42.6 36.8,43.2 35.3,43.2 C33.8,43.2 32.8,42.7 32.2,41.6 C31.6,40.6 31.3,39.2 31.3,37.3 C31.3,35.5 31.6,34 32.2,33 C32.8,32 33.8,31.4 35.3,31.4 C36.8,31.4 37.8,31.9 38.4,33 C39,34 39.3,35.4 39.3,37.3 C39.3,39.2 39,40.6 38.4,41.6 L38.4,41.6 Z M38.4,26.9 C37.8,27.9 36.8,28.5 35.3,28.5 C33.8,28.5 32.8,28 32.2,26.9 C31.6,25.9 31.3,24.5 31.3,22.6 C31.3,20.8 31.6,19.3 32.2,18.3 C32.8,17.3 33.8,16.7 35.3,16.7 C36.8,16.7 37.8,17.2 38.4,18.3 C39,19.3 39.3,20.7 39.3,22.6 C39.2,24.5 39,25.9 38.4,26.9 L38.4,26.9 Z M48.9,41.6 C48.3,42.6 47.3,43.2 45.8,43.2 C44.3,43.2 43.3,42.7 42.7,41.6 C42.1,40.6 41.8,39.2 41.8,37.3 C41.8,35.5 42.1,34 42.7,33 C43.3,32 44.3,31.4 45.8,31.4 C47.3,31.4 48.3,31.9 48.9,33 C49.5,34 49.8,35.4 49.8,37.3 C49.8,39.2 49.5,40.6 48.9,41.6 L48.9,41.6 Z M48.9,26.9 C48.3,27.9 47.3,28.5 45.8,28.5 C44.3,28.5 43.3,28 42.7,26.9 C42.1,25.9 41.8,24.5 41.8,22.6 C41.8,20.8 42.1,19.3 42.7,18.3 C43.3,17.3 44.3,16.7 45.8,16.7 C47.3,16.7 48.3,17.2 48.9,18.3 C49.5,19.3 49.8,20.7 49.8,22.6 C49.8,24.5 49.5,25.9 48.9,26.9 L48.9,26.9 Z" id="Shape" fill="#FFFFFF" mask="url(#mask-14)"></path>
                        </g>
                        <g id="Clipped">
                            <mask id="mask-16" fill="white">
                                <use xlink:href="#path-15"></use>
                            </mask>
                            <g id="SVGID_3_"></g>
                            <path d="M45.8,33.7 C45.3,33.7 44.9,34 44.7,34.5 C44.5,35.1 44.4,36.1 44.4,37.3 C44.4,38.5 44.5,39.5 44.7,40.1 C44.9,40.7 45.2,40.9 45.7,40.9 C46.2,40.9 46.6,40.6 46.7,40.1 C46.9,39.5 47,38.5 47,37.3 C47,36 46.9,35.1 46.7,34.5 C46.7,34 46.3,33.7 45.8,33.7" id="Shape" fill="#FFFFFF" mask="url(#mask-16)"></path>
                        </g>
                    </g>
                </g>
            </g>
            <g id="Group-2">
                <circle id="Oval" fill="#72C126" cx="40" cy="40" r="40"></circle>
                <g id="Page-1" transform="translate(14.000000, 12.000000)">
                    <path d="M8.7969,26.373 C7.1239,26.373 5.7629,27.734 5.7629,29.407 L5.7629,32.531 C5.7629,34.204 7.1239,35.565 8.7969,35.565 L10.0169,35.565 L10.0169,26.373 L8.7969,26.373 Z M42.1639,35.565 L43.3839,35.565 C45.0569,35.565 46.4179,34.204 46.4179,32.531 L46.4179,29.407 C46.4179,27.734 45.0569,26.373 43.3839,26.373 L42.1639,26.373 L42.1639,35.565 Z M29.3789,55.999 L26.0899,55.999 C22.7269,55.999 19.9909,53.258 19.9909,49.889 C19.9909,46.526 22.7269,43.79 26.0899,43.79 L29.3669,43.79 C31.5439,43.79 33.5059,44.931 34.5939,46.733 C36.4239,46.167 38.6739,44.742 39.4479,41.186 L39.3419,41.186 C37.7919,41.186 36.5309,39.925 36.5309,38.375 L36.5309,23.561 C36.5309,22.012 37.7919,20.751 39.3419,20.751 L39.7209,20.751 L39.7209,20.274 C39.7209,12.491 34.2079,6.622 26.8989,6.622 L25.2489,6.622 C17.9399,6.622 12.4269,12.491 12.4269,20.274 L12.4269,20.751 L12.8069,20.751 C14.3569,20.751 15.6169,22.012 15.6169,23.561 L15.6169,38.386 C15.6169,39.936 14.3569,41.197 12.8069,41.197 L8.7749,41.197 C4.0019,41.197 0.1189,37.314 0.1189,32.541 L0.1189,29.417 C0.1189,25.357 2.9599,21.892 6.8049,20.986 L6.8049,20.274 C6.8049,15.114 8.6399,10.301 11.9709,6.721 C15.3979,3.032 20.1169,1 25.2599,1 L26.9089,1 C32.0509,1 36.7719,3.032 40.1999,6.722 C43.5299,10.3 45.3639,15.113 45.3639,20.274 L45.3639,20.983 C49.2079,21.879 52.0399,25.343 52.0279,29.411 L52.0279,32.531 C52.0279,36.658 49.1129,40.155 45.1899,40.997 C44.4669,46.576 41.4839,49.447 39.0189,50.889 C37.5569,51.743 36.0879,52.199 34.9209,52.441 C33.9379,54.577 31.7789,55.999 29.3789,55.999 L29.3789,55.999 Z" id="Fill-1" fill="#FFFFFF"></path>
                    <g id="Group-8" transform="translate(0.000000, 0.999500)">
                        <mask id="mask-18" fill="white">
                            <use xlink:href="#path-17"></use>
                        </mask>
                        <g id="Clip-4"></g>
                        <path d="M-13,66 L64,66 L64,-11 L-13,-11 L-13,66 Z M-16,69 L67,69 L67,-14 L-16,-14 L-16,69 Z" id="Fill-3" fill="#FFFFFF" mask="url(#mask-18)"></path>
                        <g id="Group-7" mask="url(#mask-18)" fill="#FFFFFF">
                            <g transform="translate(-5.000000, -5.000000)">
                                <polygon id="Fill-5" points="1.619 63.5 60.529 63.5 60.529 1.5 1.619 1.5"></polygon>
                                <path d="M3.119,62 L59.028,62 L59.028,3 L3.119,3 L3.119,62 Z M0.119,65 L62.028,65 L62.028,0 L0.119,0 L0.119,65 Z" id="Fill-6"></path>
                            </g>
                        </g>
                    </g>
                </g>
            </g>
        </g>
    </g>
</svg>